G04*
G04 #@! TF.GenerationSoftware,Altium Limited,Altium Designer,19.1.7 (138)*
G04*
G04 Layer_Color=255*
%FSAX43Y43*%
%MOMM*%
G71*
G01*
G75*
%ADD14C,0.200*%
%ADD15C,0.000*%
%ADD16C,0.127*%
%ADD17C,0.100*%
%ADD19C,0.050*%
G04:AMPARAMS|DCode=20|XSize=0.7mm|YSize=1.25mm|CornerRadius=0.175mm|HoleSize=0mm|Usage=FLASHONLY|Rotation=0.000|XOffset=0mm|YOffset=0mm|HoleType=Round|Shape=RoundedRectangle|*
%AMROUNDEDRECTD20*
21,1,0.700,0.900,0,0,0.0*
21,1,0.350,1.250,0,0,0.0*
1,1,0.350,0.175,-0.450*
1,1,0.350,-0.175,-0.450*
1,1,0.350,-0.175,0.450*
1,1,0.350,0.175,0.450*
%
%ADD20ROUNDEDRECTD20*%
G04:AMPARAMS|DCode=21|XSize=0.6mm|YSize=0.85mm|CornerRadius=0.15mm|HoleSize=0mm|Usage=FLASHONLY|Rotation=0.000|XOffset=0mm|YOffset=0mm|HoleType=Round|Shape=RoundedRectangle|*
%AMROUNDEDRECTD21*
21,1,0.600,0.550,0,0,0.0*
21,1,0.300,0.850,0,0,0.0*
1,1,0.300,0.150,-0.275*
1,1,0.300,-0.150,-0.275*
1,1,0.300,-0.150,0.275*
1,1,0.300,0.150,0.275*
%
%ADD21ROUNDEDRECTD21*%
G04:AMPARAMS|DCode=22|XSize=0.8mm|YSize=1.3mm|CornerRadius=0.2mm|HoleSize=0mm|Usage=FLASHONLY|Rotation=270.000|XOffset=0mm|YOffset=0mm|HoleType=Round|Shape=RoundedRectangle|*
%AMROUNDEDRECTD22*
21,1,0.800,0.900,0,0,270.0*
21,1,0.400,1.300,0,0,270.0*
1,1,0.400,-0.450,-0.200*
1,1,0.400,-0.450,0.200*
1,1,0.400,0.450,0.200*
1,1,0.400,0.450,-0.200*
%
%ADD22ROUNDEDRECTD22*%
%ADD23R,3.810X2.030*%
%ADD24R,1.020X2.030*%
%ADD25R,2.030X2.030*%
%ADD26O,1.800X0.300*%
%ADD27O,0.300X1.800*%
%ADD28R,2.150X0.700*%
%ADD29R,2.150X3.200*%
%ADD30R,1.100X0.650*%
%ADD31R,1.067X0.254*%
%ADD32R,1.190X0.400*%
%ADD33R,2.600X0.400*%
G04:AMPARAMS|DCode=34|XSize=0.7mm|YSize=1.25mm|CornerRadius=0.175mm|HoleSize=0mm|Usage=FLASHONLY|Rotation=270.000|XOffset=0mm|YOffset=0mm|HoleType=Round|Shape=RoundedRectangle|*
%AMROUNDEDRECTD34*
21,1,0.700,0.900,0,0,270.0*
21,1,0.350,1.250,0,0,270.0*
1,1,0.350,-0.450,-0.175*
1,1,0.350,-0.450,0.175*
1,1,0.350,0.450,0.175*
1,1,0.350,0.450,-0.175*
%
%ADD34ROUNDEDRECTD34*%
G04:AMPARAMS|DCode=35|XSize=0.6mm|YSize=0.85mm|CornerRadius=0.15mm|HoleSize=0mm|Usage=FLASHONLY|Rotation=90.000|XOffset=0mm|YOffset=0mm|HoleType=Round|Shape=RoundedRectangle|*
%AMROUNDEDRECTD35*
21,1,0.600,0.550,0,0,90.0*
21,1,0.300,0.850,0,0,90.0*
1,1,0.300,0.275,0.150*
1,1,0.300,0.275,-0.150*
1,1,0.300,-0.275,-0.150*
1,1,0.300,-0.275,0.150*
%
%ADD35ROUNDEDRECTD35*%
%ADD72R,1.000X1.000*%
%ADD73C,1.000*%
%ADD74R,0.800X0.800*%
%ADD75C,1.500*%
%ADD76R,1.500X1.500*%
%ADD77R,1.000X1.000*%
%ADD78O,2.500X5.000*%
%ADD79O,2.250X4.500*%
%ADD80O,4.500X2.250*%
%ADD81C,2.540*%
%ADD82C,1.318*%
%ADD83O,1.510X1.500*%
%ADD84C,2.300*%
%ADD85C,1.428*%
%ADD86C,0.500*%
%ADD87C,1.524*%
G36*
X0055029Y0093056D02*
X0057829D01*
Y0091856D01*
X0055029D01*
Y0093056D01*
D02*
G37*
D14*
X0031112Y0058181D02*
G03*
X0031112Y0058181I-0000100J0000000D01*
G01*
D02*
G03*
X0031112Y0058181I-0000100J0000000D01*
G01*
D15*
X0054967Y0040284D02*
G03*
X0055577Y0040284I0000305J0000000D01*
G01*
X0054967D02*
G03*
X0055577Y0040284I0000305J0000000D01*
G01*
X0054078Y0038202D02*
Y0040284D01*
X0054967D01*
X0055577D01*
X0056466D01*
Y0038202D02*
Y0040284D01*
X0054078Y0038202D02*
X0056466D01*
Y0040107D02*
X0056872D01*
Y0039878D02*
Y0040107D01*
X0056466Y0039878D02*
X0056872D01*
X0056466D02*
Y0040107D01*
Y0039624D02*
X0056872D01*
Y0039370D02*
Y0039624D01*
X0056466Y0039370D02*
X0056872D01*
X0056466D02*
Y0039624D01*
Y0039116D02*
X0056872D01*
Y0038862D02*
Y0039116D01*
X0056466Y0038862D02*
X0056872D01*
X0056466D02*
Y0039116D01*
Y0038608D02*
X0056872D01*
Y0038379D02*
Y0038608D01*
X0056466Y0038379D02*
X0056872D01*
X0056466D02*
Y0038608D01*
X0053672Y0038379D02*
X0054078D01*
X0053672D02*
Y0038608D01*
X0054078D01*
Y0038379D02*
Y0038608D01*
X0053672Y0038862D02*
X0054078D01*
X0053672D02*
Y0039116D01*
X0054078D01*
Y0038862D02*
Y0039116D01*
X0053672Y0039370D02*
X0054078D01*
X0053672D02*
Y0039624D01*
X0054078D01*
Y0039370D02*
Y0039624D01*
X0053672Y0039878D02*
X0054078D01*
X0053672D02*
Y0040107D01*
X0054078D01*
Y0039878D02*
Y0040107D01*
Y0038202D02*
Y0040284D01*
X0054967D01*
X0055577D01*
X0056466D01*
Y0038202D02*
Y0040284D01*
X0054078Y0038202D02*
X0056466D01*
Y0040107D02*
X0056872D01*
Y0039878D02*
Y0040107D01*
X0056466Y0039878D02*
X0056872D01*
X0056466D02*
Y0040107D01*
Y0039624D02*
X0056872D01*
Y0039370D02*
Y0039624D01*
X0056466Y0039370D02*
X0056872D01*
X0056466D02*
Y0039624D01*
Y0039116D02*
X0056872D01*
Y0038862D02*
Y0039116D01*
X0056466Y0038862D02*
X0056872D01*
X0056466D02*
Y0039116D01*
Y0038608D02*
X0056872D01*
Y0038379D02*
Y0038608D01*
X0056466Y0038379D02*
X0056872D01*
X0056466D02*
Y0038608D01*
X0053672Y0038379D02*
X0054078D01*
X0053672D02*
Y0038608D01*
X0054078D01*
Y0038379D02*
Y0038608D01*
X0053672Y0038862D02*
X0054078D01*
X0053672D02*
Y0039116D01*
X0054078D01*
Y0038862D02*
Y0039116D01*
X0053672Y0039370D02*
X0054078D01*
X0053672D02*
Y0039624D01*
X0054078D01*
Y0039370D02*
Y0039624D01*
X0053672Y0039878D02*
X0054078D01*
X0053672D02*
Y0040107D01*
X0054078D01*
Y0039878D02*
Y0040107D01*
D16*
X0055629Y0092056D02*
X0057229D01*
X0055629Y0092856D02*
X0057229D01*
X0055629Y0092056D02*
Y0092856D01*
X0057229Y0092056D02*
Y0092856D01*
X0055629Y0092056D02*
X0057229D01*
X0055629Y0092856D02*
X0057229D01*
X0055629Y0092056D02*
Y0092856D01*
X0057229Y0092056D02*
Y0092856D01*
X0032099Y0088338D02*
X0046499D01*
X0032099D02*
Y0097338D01*
X0046499D01*
Y0088338D02*
Y0097338D01*
X0032099Y0088338D02*
X0046499D01*
X0032099D02*
Y0097338D01*
X0046499D01*
Y0088338D02*
Y0097338D01*
X0033592Y0084836D02*
X0041592D01*
X0033592Y0075626D02*
X0041592D01*
X0033592Y0084836D02*
X0041592D01*
X0033592Y0075626D02*
X0041592D01*
X0032512Y0056451D02*
Y0058611D01*
Y0056451D02*
X0033912D01*
Y0058611D01*
X0032512D02*
X0033912D01*
X0032512Y0056451D02*
Y0058611D01*
Y0056451D02*
X0033912D01*
Y0058611D01*
X0032512D02*
X0033912D01*
X0037830Y0047026D02*
Y0051526D01*
X0035830Y0047026D02*
Y0051526D01*
X0037830Y0047026D02*
Y0051526D01*
X0035830Y0047026D02*
Y0051526D01*
X0161925Y0063987D02*
Y0071527D01*
X0064135D02*
X0161925D01*
X0064135Y0063987D02*
Y0071527D01*
Y0063987D02*
X0161925D01*
Y0071527D01*
X0064135D02*
X0161925D01*
X0064135Y0063987D02*
Y0071527D01*
Y0063987D02*
X0161925D01*
X0044249Y0061402D02*
Y0073432D01*
X0028539Y0061402D02*
X0044249D01*
X0028539Y0073432D02*
X0044249D01*
X0028539Y0061402D02*
Y0073432D01*
X0044249Y0061402D02*
Y0073432D01*
X0028539Y0061402D02*
X0044249D01*
X0028539Y0073432D02*
X0044249D01*
X0028539Y0061402D02*
Y0073432D01*
D17*
X0043338Y0047071D02*
G03*
X0043338Y0047071I-0000500J0000000D01*
G01*
X0048938Y0046171D02*
Y0053171D01*
X0041938Y0046171D02*
Y0053171D01*
X0048938D01*
X0041938Y0046171D02*
X0048938D01*
X0055779Y0088238D02*
X0059329D01*
X0055779Y0081688D02*
X0059329D01*
X0055779D02*
Y0088238D01*
X0059329Y0081688D02*
Y0088238D01*
X0038216Y0037947D02*
Y0041047D01*
X0040016Y0037947D02*
Y0041047D01*
X0038216D02*
X0040016D01*
X0038216Y0037947D02*
X0040016D01*
X0044938Y0049671D02*
X0045938D01*
X0045438Y0049171D02*
Y0050171D01*
X0057554Y0084463D02*
Y0085463D01*
X0057054Y0084963D02*
X0058054D01*
X0038616Y0039497D02*
X0039616D01*
X0039116Y0038997D02*
Y0039997D01*
D19*
X0045349Y0088088D02*
X0046799D01*
X0045349Y0086738D02*
Y0088088D01*
X0040249Y0086738D02*
X0045349D01*
X0040249D02*
Y0088088D01*
X0031799D02*
X0040249D01*
X0031799D02*
Y0097588D01*
X0046799D01*
Y0095188D02*
Y0097588D01*
Y0088088D02*
Y0090588D01*
X0047349D01*
Y0095188D01*
X0046799D02*
X0047349D01*
X0031842Y0086086D02*
X0043342D01*
Y0075336D02*
Y0086086D01*
X0031842Y0075336D02*
X0043342D01*
X0031842D02*
Y0086086D01*
X0050638Y0044471D02*
Y0054871D01*
X0040238Y0044471D02*
Y0054871D01*
X0050638D01*
X0040238Y0044471D02*
X0050638D01*
X0053229Y0088513D02*
X0061879D01*
X0053229Y0081413D02*
X0061879D01*
X0053229D02*
Y0088513D01*
X0061879Y0081413D02*
Y0088513D01*
X0037116Y0037697D02*
Y0041297D01*
X0041116Y0037697D02*
Y0041297D01*
X0037116D02*
X0041116D01*
X0037116Y0037697D02*
X0041116D01*
X0038380Y0046726D02*
Y0051826D01*
X0035280Y0046726D02*
X0038380D01*
X0035280D02*
Y0051826D01*
X0038380D01*
X0162180Y0063737D02*
Y0071777D01*
X0063880D02*
X0162180D01*
X0063880Y0063737D02*
Y0071777D01*
Y0063737D02*
X0162180D01*
X0040069Y0073667D02*
X0044569D01*
X0040069D02*
Y0074667D01*
X0037569D02*
X0040069D01*
X0037569Y0073667D02*
Y0074667D01*
X0028319Y0073667D02*
X0037569D01*
X0028319Y0061167D02*
Y0073667D01*
Y0061167D02*
X0037569D01*
Y0060167D02*
Y0061167D01*
Y0060167D02*
X0040069D01*
Y0061167D01*
X0044569D01*
Y0073667D01*
X0031402Y0058861D02*
X0035022D01*
Y0056201D02*
Y0058861D01*
X0031402Y0056201D02*
X0035022D01*
X0031402D02*
Y0058861D01*
D20*
X0059359Y0090170D02*
D03*
X0061259D02*
D03*
X0057465Y0090297D02*
D03*
X0055565D02*
D03*
D21*
X0045224Y0055753D02*
D03*
X0046724D02*
D03*
X0154571Y0035325D02*
D03*
X0156071D02*
D03*
X0058154Y0047498D02*
D03*
X0056654D02*
D03*
X0046494Y0041402D02*
D03*
X0047994D02*
D03*
X0036473Y0042545D02*
D03*
X0037973D02*
D03*
X0058154Y0045485D02*
D03*
X0056654D02*
D03*
X0055565Y0033655D02*
D03*
X0054065D02*
D03*
X0055565Y0035287D02*
D03*
X0054065D02*
D03*
X0153670Y0083566D02*
D03*
X0155170D02*
D03*
X0153670Y0085217D02*
D03*
X0155170D02*
D03*
X0153682Y0086868D02*
D03*
X0155182D02*
D03*
X0038469Y0032766D02*
D03*
X0036969D02*
D03*
X0047220Y0033020D02*
D03*
X0045720D02*
D03*
X0154571Y0041040D02*
D03*
X0156071D02*
D03*
X0154571Y0039262D02*
D03*
X0156071D02*
D03*
X0154571Y0037230D02*
D03*
X0156071D02*
D03*
X0059451Y0092456D02*
D03*
X0060951D02*
D03*
D22*
X0036449Y0054875D02*
D03*
Y0053075D02*
D03*
D23*
X0033907Y0084836D02*
D03*
X0041277D02*
D03*
D24*
X0037592D02*
D03*
D25*
X0035812Y0077216D02*
D03*
X0039372D02*
D03*
D26*
X0041388Y0052421D02*
D03*
Y0051421D02*
D03*
Y0050921D02*
D03*
Y0050421D02*
D03*
Y0049921D02*
D03*
Y0049421D02*
D03*
Y0048921D02*
D03*
Y0048421D02*
D03*
Y0047921D02*
D03*
Y0047421D02*
D03*
Y0046921D02*
D03*
X0049488Y0052421D02*
D03*
Y0051921D02*
D03*
Y0051421D02*
D03*
Y0050921D02*
D03*
Y0050421D02*
D03*
Y0049921D02*
D03*
Y0049421D02*
D03*
Y0048921D02*
D03*
Y0048421D02*
D03*
Y0047921D02*
D03*
Y0047421D02*
D03*
Y0046921D02*
D03*
X0041388Y0051921D02*
D03*
D27*
X0042688Y0053721D02*
D03*
X0043188D02*
D03*
X0043688D02*
D03*
X0044188D02*
D03*
X0044688D02*
D03*
X0045188D02*
D03*
X0045688D02*
D03*
X0046188D02*
D03*
X0046688D02*
D03*
X0047188D02*
D03*
X0047688D02*
D03*
X0048188D02*
D03*
X0042688Y0045621D02*
D03*
X0043188D02*
D03*
X0043688D02*
D03*
X0044188D02*
D03*
X0044688D02*
D03*
X0045188D02*
D03*
X0045688D02*
D03*
X0046688D02*
D03*
X0046188D02*
D03*
X0047188D02*
D03*
X0047688D02*
D03*
X0048188D02*
D03*
D28*
X0060579Y0087503D02*
D03*
Y0086233D02*
D03*
Y0084963D02*
D03*
Y0083693D02*
D03*
Y0082423D02*
D03*
D29*
X0054529Y0084963D02*
D03*
D30*
X0037916Y0040447D02*
D03*
Y0039497D02*
D03*
Y0038547D02*
D03*
X0040316Y0040447D02*
D03*
Y0039497D02*
D03*
Y0038547D02*
D03*
D31*
X0053850Y0040005D02*
D03*
Y0039497D02*
D03*
Y0038989D02*
D03*
Y0038481D02*
D03*
X0056695Y0040005D02*
D03*
Y0039497D02*
D03*
Y0038989D02*
D03*
Y0038481D02*
D03*
D32*
X0032252Y0058181D02*
D03*
Y0057531D02*
D03*
Y0056881D02*
D03*
X0034172Y0058181D02*
D03*
Y0057531D02*
D03*
Y0056881D02*
D03*
D33*
X0036830Y0049276D02*
D03*
Y0047776D02*
D03*
Y0050776D02*
D03*
D34*
X0064516Y0081854D02*
D03*
Y0083754D02*
D03*
D35*
X0040259Y0042557D02*
D03*
Y0044057D02*
D03*
X0038227Y0054471D02*
D03*
Y0052971D02*
D03*
X0036214Y0045708D02*
D03*
Y0044208D02*
D03*
X0037992D02*
D03*
Y0045708D02*
D03*
X0049657Y0039866D02*
D03*
Y0038366D02*
D03*
X0047752Y0039866D02*
D03*
Y0038366D02*
D03*
X0034417Y0048399D02*
D03*
Y0049899D02*
D03*
X0034544Y0038747D02*
D03*
Y0040247D02*
D03*
X0036195D02*
D03*
Y0038747D02*
D03*
X0051162Y0038366D02*
D03*
Y0039866D02*
D03*
D72*
X0165608Y0065024D02*
D03*
X0054864Y0073152D02*
D03*
X0069977Y0088773D02*
D03*
X0072517Y0039497D02*
D03*
Y0045974D02*
D03*
X0069977Y0082931D02*
D03*
X0066421Y0091313D02*
D03*
D73*
X0165608Y0066294D02*
D03*
Y0067564D02*
D03*
Y0068834D02*
D03*
X0056134Y0073152D02*
D03*
X0054864Y0071882D02*
D03*
X0056134D02*
D03*
X0054864Y0070612D02*
D03*
X0056134D02*
D03*
X0054864Y0069342D02*
D03*
X0056134D02*
D03*
X0054864Y0068072D02*
D03*
X0056134D02*
D03*
X0054864Y0066802D02*
D03*
X0056134D02*
D03*
X0054864Y0065532D02*
D03*
X0056134D02*
D03*
X0140843Y0079121D02*
D03*
X0142113D02*
D03*
X0143383D02*
D03*
X0144653D02*
D03*
X0145923D02*
D03*
X0147193D02*
D03*
X0148463D02*
D03*
X0069977Y0092583D02*
D03*
Y0091313D02*
D03*
Y0090043D02*
D03*
X0155194Y0079121D02*
D03*
X0153924D02*
D03*
X0072517Y0040767D02*
D03*
X0139065Y0056896D02*
D03*
X0140335D02*
D03*
X0141605D02*
D03*
X0142875D02*
D03*
X0144145D02*
D03*
X0145415D02*
D03*
X0146685D02*
D03*
X0072517Y0047244D02*
D03*
Y0048514D02*
D03*
Y0049784D02*
D03*
X0069977Y0081661D02*
D03*
X0156083Y0056896D02*
D03*
X0154813D02*
D03*
X0066421Y0092583D02*
D03*
D74*
X0055629Y0092456D02*
D03*
X0057229D02*
D03*
D75*
X0134239Y0079502D02*
D03*
X0131699D02*
D03*
X0129159D02*
D03*
X0126619D02*
D03*
X0124079D02*
D03*
X0121539D02*
D03*
X0118999D02*
D03*
X0116459D02*
D03*
X0113919D02*
D03*
X0111379D02*
D03*
X0108839D02*
D03*
X0106299D02*
D03*
X0103759D02*
D03*
X0101219D02*
D03*
X0098679D02*
D03*
X0096139D02*
D03*
X0093599D02*
D03*
X0091059D02*
D03*
X0088519D02*
D03*
X0085979D02*
D03*
X0083439D02*
D03*
X0080899D02*
D03*
X0078359D02*
D03*
X0075819D02*
D03*
X0068199Y0060071D02*
D03*
X0081026Y0056388D02*
D03*
X0083566D02*
D03*
X0086106D02*
D03*
X0088646D02*
D03*
X0091186D02*
D03*
X0093726D02*
D03*
X0096266D02*
D03*
X0101346D02*
D03*
X0103886D02*
D03*
X0106426D02*
D03*
X0108966D02*
D03*
X0111506D02*
D03*
X0114046D02*
D03*
X0116586D02*
D03*
X0119126D02*
D03*
X0121666D02*
D03*
X0124206D02*
D03*
X0126746D02*
D03*
X0129286D02*
D03*
X0131826D02*
D03*
X0043434Y0033020D02*
D03*
X0156972Y0089154D02*
D03*
Y0092202D02*
D03*
Y0095250D02*
D03*
X0157861Y0052578D02*
D03*
Y0049530D02*
D03*
Y0046482D02*
D03*
Y0043434D02*
D03*
D76*
X0073279Y0079502D02*
D03*
X0065659Y0060071D02*
D03*
X0078486Y0056388D02*
D03*
X0040894Y0033020D02*
D03*
X0154432Y0089154D02*
D03*
Y0092202D02*
D03*
Y0095250D02*
D03*
X0155321Y0052578D02*
D03*
Y0049530D02*
D03*
Y0046482D02*
D03*
Y0043434D02*
D03*
D77*
X0139573Y0079121D02*
D03*
X0156464D02*
D03*
X0137795Y0056896D02*
D03*
X0157353D02*
D03*
D78*
X0045799Y0092838D02*
D03*
D79*
X0039799D02*
D03*
D80*
X0042799Y0088138D02*
D03*
D81*
X0152400Y0067757D02*
D03*
X0073660D02*
D03*
D82*
X0149225Y0068707D02*
D03*
X0147955Y0070607D02*
D03*
X0146685Y0068707D02*
D03*
X0145415Y0070607D02*
D03*
X0144145Y0068707D02*
D03*
X0142875Y0070607D02*
D03*
X0136525Y0068707D02*
D03*
X0135255Y0070607D02*
D03*
X0133985Y0068707D02*
D03*
X0132715Y0070607D02*
D03*
X0131445Y0068707D02*
D03*
X0130175Y0070607D02*
D03*
X0128905Y0068707D02*
D03*
X0127635Y0070607D02*
D03*
X0126365Y0068707D02*
D03*
X0125095Y0070607D02*
D03*
X0123825Y0068707D02*
D03*
X0122555Y0070607D02*
D03*
X0121285Y0068707D02*
D03*
X0120015Y0070607D02*
D03*
X0118745Y0068707D02*
D03*
X0117475Y0070607D02*
D03*
X0111125Y0068707D02*
D03*
X0109855Y0070607D02*
D03*
X0108585Y0068707D02*
D03*
X0107315Y0070607D02*
D03*
X0106045Y0068707D02*
D03*
X0104775Y0070607D02*
D03*
X0103505Y0068707D02*
D03*
X0102235Y0070607D02*
D03*
X0100965Y0068707D02*
D03*
X0099695Y0070607D02*
D03*
X0098425Y0068707D02*
D03*
X0097155Y0070607D02*
D03*
X0095885Y0068707D02*
D03*
X0094615Y0070607D02*
D03*
X0093345Y0068707D02*
D03*
X0092075Y0070607D02*
D03*
X0090805Y0068707D02*
D03*
X0089535Y0070607D02*
D03*
X0088265Y0068707D02*
D03*
X0086995Y0070607D02*
D03*
X0085725Y0068707D02*
D03*
X0084455Y0070607D02*
D03*
X0083185Y0068707D02*
D03*
X0081915Y0070607D02*
D03*
X0080645Y0068707D02*
D03*
X0079375Y0070607D02*
D03*
X0078105Y0068707D02*
D03*
X0076835Y0070607D02*
D03*
X0149225Y0064907D02*
D03*
X0147955Y0066807D02*
D03*
X0146685Y0064907D02*
D03*
X0145415Y0066807D02*
D03*
X0144145Y0064907D02*
D03*
X0142875Y0066807D02*
D03*
X0136525Y0064907D02*
D03*
X0135255Y0066807D02*
D03*
X0133985Y0064907D02*
D03*
X0132715Y0066807D02*
D03*
X0131445Y0064907D02*
D03*
X0130175Y0066807D02*
D03*
X0128905Y0064907D02*
D03*
X0127635Y0066807D02*
D03*
X0126365Y0064907D02*
D03*
X0125095Y0066807D02*
D03*
X0123825Y0064907D02*
D03*
X0122555Y0066807D02*
D03*
X0121285Y0064907D02*
D03*
X0120015Y0066807D02*
D03*
X0118745Y0064907D02*
D03*
X0117475Y0066807D02*
D03*
X0111125Y0064907D02*
D03*
X0109855Y0066807D02*
D03*
X0108585Y0064907D02*
D03*
X0107315Y0066807D02*
D03*
X0106045Y0064907D02*
D03*
X0104775Y0066807D02*
D03*
X0103505Y0064907D02*
D03*
X0102235Y0066807D02*
D03*
X0100965Y0064907D02*
D03*
X0099695Y0066807D02*
D03*
X0098425Y0064907D02*
D03*
X0097155Y0066807D02*
D03*
X0095885Y0064907D02*
D03*
X0094615Y0066807D02*
D03*
X0093345Y0064907D02*
D03*
X0092075Y0066807D02*
D03*
X0090805Y0064907D02*
D03*
X0089535Y0066807D02*
D03*
X0088265Y0064907D02*
D03*
X0086995Y0066807D02*
D03*
X0085725Y0064907D02*
D03*
X0084455Y0066807D02*
D03*
X0083185Y0064907D02*
D03*
X0081915Y0066807D02*
D03*
X0080645Y0064907D02*
D03*
X0079375Y0066807D02*
D03*
X0078105Y0064907D02*
D03*
X0076835Y0066807D02*
D03*
D83*
X0098806Y0056388D02*
D03*
D84*
X0038819Y0061397D02*
D03*
Y0073437D02*
D03*
D85*
X0041529Y0066167D02*
D03*
Y0068667D02*
D03*
X0043529D02*
D03*
Y0066167D02*
D03*
D86*
X0049161Y0057646D02*
D03*
X0043053Y0050927D02*
D03*
X0047764Y0049518D02*
D03*
X0043700Y0052312D02*
D03*
X0043591Y0047048D02*
D03*
X0047879Y0055626D02*
D03*
X0057404Y0056134D02*
D03*
X0044196Y0036703D02*
D03*
X0046748Y0047105D02*
D03*
X0059309Y0056134D02*
D03*
X0042799Y0048006D02*
D03*
X0053799Y0041148D02*
D03*
X0058293Y0056134D02*
D03*
X0036322Y0043561D02*
D03*
X0040259Y0045974D02*
D03*
X0039116Y0042545D02*
D03*
X0034798Y0035814D02*
D03*
X0036957Y0033909D02*
D03*
X0048895Y0041656D02*
D03*
X0053086Y0033636D02*
D03*
X0052070Y0035814D02*
D03*
X0058154Y0044481D02*
D03*
X0059436Y0062484D02*
D03*
X0065532Y0066294D02*
D03*
X0067945Y0069164D02*
D03*
X0061976Y0072390D02*
D03*
X0058674Y0074295D02*
D03*
X0067564Y0086106D02*
D03*
X0057723Y0038342D02*
D03*
X0036830Y0049784D02*
D03*
X0038227Y0055245D02*
D03*
X0055626Y0093345D02*
D03*
X0062103Y0090170D02*
D03*
X0055499Y0089281D02*
D03*
X0047359Y0032004D02*
D03*
X0052463Y0061964D02*
D03*
X0062115Y0084951D02*
D03*
X0060960Y0056261D02*
D03*
X0062006Y0056388D02*
D03*
X0085090Y0060833D02*
D03*
X0043053Y0058674D02*
D03*
X0058166Y0046482D02*
D03*
X0045276Y0035877D02*
D03*
X0034925Y0055626D02*
D03*
X0042291Y0057150D02*
D03*
X0038866Y0039497D02*
D03*
X0064516Y0080899D02*
D03*
X0032156Y0056428D02*
D03*
X0033934Y0055666D02*
D03*
X0029464Y0054991D02*
D03*
X0152654Y0083185D02*
D03*
X0107823Y0055499D02*
D03*
X0102489Y0058928D02*
D03*
X0087249Y0058547D02*
D03*
X0153376Y0041080D02*
D03*
D87*
X0069066Y0074425D02*
D03*
X0069215Y0062484D02*
D03*
M02*
