G04*
G04 #@! TF.GenerationSoftware,Altium Limited,Altium Designer,19.1.7 (138)*
G04*
G04 Layer_Color=65535*
%FSAX43Y43*%
%MOMM*%
G71*
G01*
G75*
%ADD10C,0.400*%
%ADD11C,0.600*%
%ADD12C,0.250*%
%ADD13C,0.152*%
%ADD14C,0.200*%
%ADD15C,0.000*%
%ADD16C,0.127*%
%ADD17C,0.100*%
%ADD18C,0.254*%
%ADD19C,0.050*%
G36*
X0055029Y0093056D02*
X0057829D01*
Y0091856D01*
X0055029D01*
Y0093056D01*
D02*
G37*
D10*
X0047999Y0092838D02*
G03*
X0047999Y0092838I-0000200J0000000D01*
G01*
D11*
X0043988Y0047921D02*
G03*
X0043988Y0047921I-0000300J0000000D01*
G01*
D12*
X0042113Y0045621D02*
G03*
X0042113Y0045621I-0000125J0000000D01*
G01*
X0060704Y0081523D02*
G03*
X0060704Y0081523I-0000125J0000000D01*
G01*
X0038041Y0041322D02*
G03*
X0038041Y0041322I-0000125J0000000D01*
G01*
X0078611Y0058438D02*
G03*
X0078611Y0058438I-0000125J0000000D01*
G01*
D13*
X0054967Y0040284D02*
G03*
X0055577Y0040284I0000305J0000000D01*
G01*
X0054663D02*
X0054967D01*
X0055577D01*
X0055882D01*
D14*
X0031112Y0058181D02*
G03*
X0031112Y0058181I-0000100J0000000D01*
G01*
X0150468Y0068773D02*
G03*
X0150468Y0068773I-0000100J0000000D01*
G01*
X0166508Y0064124D02*
Y0069734D01*
X0164708Y0064124D02*
X0166508D01*
X0164708D02*
Y0069734D01*
X0166508D01*
X0053964Y0074052D02*
X0057034D01*
Y0064632D02*
Y0074052D01*
X0053964Y0064632D02*
X0057034D01*
X0053964D02*
Y0074052D01*
X0073914Y0080772D02*
X0135509D01*
X0072009D02*
X0073914D01*
X0072009Y0078232D02*
Y0080772D01*
Y0078232D02*
X0135509D01*
Y0080772D01*
X0138673Y0078221D02*
Y0080021D01*
X0149363D01*
Y0078221D02*
Y0080021D01*
X0138673Y0078221D02*
X0149363D01*
X0069469Y0058801D02*
Y0061341D01*
X0064389Y0058801D02*
Y0061341D01*
X0069469D01*
X0064389Y0058801D02*
X0069469D01*
X0048188Y0046921D02*
Y0052421D01*
X0042688Y0046921D02*
Y0052421D01*
X0048188D01*
X0042688Y0046921D02*
X0048188D01*
X0055904Y0088263D02*
X0059204D01*
X0055904Y0081663D02*
X0059204D01*
X0055904D02*
Y0088263D01*
X0059204Y0081663D02*
Y0088263D01*
X0038866Y0041047D02*
X0039366D01*
X0038866Y0037947D02*
X0039366D01*
X0038866D02*
Y0041047D01*
X0039366Y0037947D02*
Y0041047D01*
X0069077Y0093483D02*
X0070877D01*
X0069077Y0087873D02*
Y0093483D01*
Y0087873D02*
X0070877D01*
Y0093483D01*
X0153024Y0080021D02*
X0157364D01*
Y0078221D02*
Y0080021D01*
X0153024Y0078221D02*
X0157364D01*
X0153024D02*
Y0080021D01*
X0073417Y0038597D02*
Y0041667D01*
X0071617Y0038597D02*
X0073417D01*
X0071617D02*
Y0041667D01*
X0073417D01*
X0077086Y0057788D02*
X0133226D01*
Y0054988D02*
Y0057788D01*
X0077086Y0054988D02*
X0133226D01*
X0077086D02*
Y0057788D01*
X0136895Y0055996D02*
Y0057796D01*
X0147585D01*
Y0055996D02*
Y0057796D01*
X0136895Y0055996D02*
X0147585D01*
X0044704Y0031750D02*
Y0034290D01*
X0039624Y0031750D02*
Y0034290D01*
X0044704D01*
X0039624Y0031750D02*
X0044704D01*
X0158242Y0087884D02*
Y0090424D01*
X0153162Y0087884D02*
Y0090424D01*
X0158242D01*
X0153162Y0087884D02*
X0158242D01*
Y0090932D02*
Y0093472D01*
X0153162Y0090932D02*
Y0093472D01*
X0158242D01*
X0153162Y0090932D02*
X0158242D01*
Y0093980D02*
Y0096520D01*
X0153162Y0093980D02*
Y0096520D01*
X0158242D01*
X0153162Y0093980D02*
X0158242D01*
X0159131Y0051308D02*
Y0053848D01*
X0154051Y0051308D02*
Y0053848D01*
X0159131D01*
X0154051Y0051308D02*
X0159131D01*
Y0048260D02*
Y0050800D01*
X0154051Y0048260D02*
Y0050800D01*
X0159131D01*
X0154051Y0048260D02*
X0159131D01*
Y0045212D02*
Y0047752D01*
X0154051Y0045212D02*
Y0047752D01*
X0159131D01*
X0154051Y0045212D02*
X0159131D01*
Y0042164D02*
Y0044704D01*
X0154051Y0042164D02*
Y0044704D01*
X0159131D01*
X0154051Y0042164D02*
X0159131D01*
X0073417Y0045074D02*
Y0050684D01*
X0071617Y0045074D02*
X0073417D01*
X0071617D02*
Y0050684D01*
X0073417D01*
X0069077Y0080761D02*
X0070877D01*
Y0083831D01*
X0069077D02*
X0070877D01*
X0069077Y0080761D02*
Y0083831D01*
X0153913Y0057796D02*
X0158253D01*
Y0055996D02*
Y0057796D01*
X0153913Y0055996D02*
X0158253D01*
X0153913D02*
Y0057796D01*
X0067321Y0090413D02*
Y0093483D01*
X0065521Y0090413D02*
X0067321D01*
X0065521D02*
Y0093483D01*
X0067321D01*
X0054356Y0064152D02*
Y0063819D01*
Y0063985D01*
X0055356D01*
X0055189Y0064152D01*
Y0063319D02*
X0055356Y0063152D01*
Y0062819D01*
X0055189Y0062652D01*
X0055022D01*
X0054856Y0062819D01*
Y0062986D01*
Y0062819D01*
X0054689Y0062652D01*
X0054523D01*
X0054356Y0062819D01*
Y0063152D01*
X0054523Y0063319D01*
X0054356Y0074852D02*
Y0074519D01*
Y0074685D01*
X0055356D01*
X0055189Y0074852D01*
X0031112Y0058181D02*
G03*
X0031112Y0058181I-0000100J0000000D01*
G01*
D02*
G03*
X0031112Y0058181I-0000100J0000000D01*
G01*
D15*
X0037163Y0052076D02*
G03*
X0037163Y0052076I-0000283J0000000D01*
G01*
X0054967Y0040284D02*
G03*
X0055577Y0040284I0000305J0000000D01*
G01*
X0054967D02*
G03*
X0055577Y0040284I0000305J0000000D01*
G01*
X0054078Y0038202D02*
Y0040284D01*
X0054967D01*
X0055577D01*
X0056466D01*
Y0038202D02*
Y0040284D01*
X0054078Y0038202D02*
X0056466D01*
Y0040107D02*
X0056872D01*
Y0039878D02*
Y0040107D01*
X0056466Y0039878D02*
X0056872D01*
X0056466D02*
Y0040107D01*
Y0039624D02*
X0056872D01*
Y0039370D02*
Y0039624D01*
X0056466Y0039370D02*
X0056872D01*
X0056466D02*
Y0039624D01*
Y0039116D02*
X0056872D01*
Y0038862D02*
Y0039116D01*
X0056466Y0038862D02*
X0056872D01*
X0056466D02*
Y0039116D01*
Y0038608D02*
X0056872D01*
Y0038379D02*
Y0038608D01*
X0056466Y0038379D02*
X0056872D01*
X0056466D02*
Y0038608D01*
X0053672Y0038379D02*
X0054078D01*
X0053672D02*
Y0038608D01*
X0054078D01*
Y0038379D02*
Y0038608D01*
X0053672Y0038862D02*
X0054078D01*
X0053672D02*
Y0039116D01*
X0054078D01*
Y0038862D02*
Y0039116D01*
X0053672Y0039370D02*
X0054078D01*
X0053672D02*
Y0039624D01*
X0054078D01*
Y0039370D02*
Y0039624D01*
X0053672Y0039878D02*
X0054078D01*
X0053672D02*
Y0040107D01*
X0054078D01*
Y0039878D02*
Y0040107D01*
Y0038202D02*
Y0040284D01*
X0054967D01*
X0055577D01*
X0056466D01*
Y0038202D02*
Y0040284D01*
X0054078Y0038202D02*
X0056466D01*
Y0040107D02*
X0056872D01*
Y0039878D02*
Y0040107D01*
X0056466Y0039878D02*
X0056872D01*
X0056466D02*
Y0040107D01*
Y0039624D02*
X0056872D01*
Y0039370D02*
Y0039624D01*
X0056466Y0039370D02*
X0056872D01*
X0056466D02*
Y0039624D01*
Y0039116D02*
X0056872D01*
Y0038862D02*
Y0039116D01*
X0056466Y0038862D02*
X0056872D01*
X0056466D02*
Y0039116D01*
Y0038608D02*
X0056872D01*
Y0038379D02*
Y0038608D01*
X0056466Y0038379D02*
X0056872D01*
X0056466D02*
Y0038608D01*
X0053672Y0038379D02*
X0054078D01*
X0053672D02*
Y0038608D01*
X0054078D01*
Y0038379D02*
Y0038608D01*
X0053672Y0038862D02*
X0054078D01*
X0053672D02*
Y0039116D01*
X0054078D01*
Y0038862D02*
Y0039116D01*
X0053672Y0039370D02*
X0054078D01*
X0053672D02*
Y0039624D01*
X0054078D01*
Y0039370D02*
Y0039624D01*
X0053672Y0039878D02*
X0054078D01*
X0053672D02*
Y0040107D01*
X0054078D01*
Y0039878D02*
Y0040107D01*
D16*
X0043677Y0064857D02*
G03*
X0043677Y0064857I-0000098J0000000D01*
G01*
X0056229Y0092456D02*
X0056629Y0092206D01*
X0056229Y0092456D02*
X0056629Y0092706D01*
Y0092206D02*
Y0092706D01*
X0056229Y0092056D02*
X0056629D01*
X0056229Y0092856D02*
X0056629D01*
X0032099Y0088338D02*
Y0097338D01*
X0046499D01*
X0045349Y0088338D02*
X0046499D01*
Y0095488D02*
Y0097338D01*
X0032099Y0088338D02*
X0040249D01*
X0046499D02*
Y0090288D01*
X0033467Y0075626D02*
Y0083556D01*
X0041717Y0075626D02*
Y0083536D01*
X0032512Y0058701D02*
X0033912D01*
X0032512Y0056361D02*
X0033912D01*
X0161925Y0063987D02*
Y0071527D01*
X0064135D02*
X0161925D01*
X0064135Y0063987D02*
Y0071527D01*
Y0063987D02*
X0161925D01*
X0044249Y0069577D02*
Y0073432D01*
X0028539Y0061402D02*
Y0073432D01*
Y0061402D02*
X0037399D01*
X0028539Y0073432D02*
X0037399D01*
X0040179Y0061402D02*
X0044249D01*
Y0065257D01*
X0040179Y0073432D02*
X0044249D01*
X0055629Y0092056D02*
X0057229D01*
X0055629Y0092856D02*
X0057229D01*
X0055629Y0092056D02*
Y0092856D01*
X0057229Y0092056D02*
Y0092856D01*
X0055629Y0092056D02*
X0057229D01*
X0055629Y0092856D02*
X0057229D01*
X0055629Y0092056D02*
Y0092856D01*
X0057229Y0092056D02*
Y0092856D01*
X0032099Y0088338D02*
X0046499D01*
X0032099D02*
Y0097338D01*
X0046499D01*
Y0088338D02*
Y0097338D01*
X0032099Y0088338D02*
X0046499D01*
X0032099D02*
Y0097338D01*
X0046499D01*
Y0088338D02*
Y0097338D01*
X0033592Y0084836D02*
X0041592D01*
X0033592Y0075626D02*
X0041592D01*
X0033592Y0084836D02*
X0041592D01*
X0033592Y0075626D02*
X0041592D01*
X0032512Y0056451D02*
Y0058611D01*
Y0056451D02*
X0033912D01*
Y0058611D01*
X0032512D02*
X0033912D01*
X0032512Y0056451D02*
Y0058611D01*
Y0056451D02*
X0033912D01*
Y0058611D01*
X0032512D02*
X0033912D01*
X0037830Y0047026D02*
Y0051526D01*
X0035830Y0047026D02*
Y0051526D01*
X0037830Y0047026D02*
Y0051526D01*
X0035830Y0047026D02*
Y0051526D01*
X0161925Y0063987D02*
Y0071527D01*
X0064135D02*
X0161925D01*
X0064135Y0063987D02*
Y0071527D01*
Y0063987D02*
X0161925D01*
Y0071527D01*
X0064135D02*
X0161925D01*
X0064135Y0063987D02*
Y0071527D01*
Y0063987D02*
X0161925D01*
X0044249Y0061402D02*
Y0073432D01*
X0028539Y0061402D02*
X0044249D01*
X0028539Y0073432D02*
X0044249D01*
X0028539Y0061402D02*
Y0073432D01*
X0044249Y0061402D02*
Y0073432D01*
X0028539Y0061402D02*
X0044249D01*
X0028539Y0073432D02*
X0044249D01*
X0028539Y0061402D02*
Y0073432D01*
D17*
X0050562Y0037916D02*
X0051762D01*
X0050562Y0040316D02*
X0051762D01*
X0050562Y0037916D02*
Y0040316D01*
X0051762Y0037916D02*
Y0040316D01*
X0061401Y0091856D02*
Y0093056D01*
X0059001Y0091856D02*
Y0093056D01*
Y0091856D02*
X0061401D01*
X0059001Y0093056D02*
X0061401D01*
X0058809Y0090970D02*
X0059809D01*
X0058809Y0089370D02*
X0059809D01*
X0060809Y0090970D02*
X0061809D01*
X0060809Y0089370D02*
X0061809D01*
Y0090970D01*
X0058809Y0089370D02*
Y0090970D01*
X0046274Y0055153D02*
X0047174D01*
X0046274Y0056353D02*
X0047174D01*
Y0055153D02*
Y0056353D01*
X0044774Y0055153D02*
Y0056353D01*
Y0055153D02*
X0045674D01*
X0044774Y0056353D02*
X0045674D01*
X0035549Y0052475D02*
Y0052875D01*
Y0055075D02*
Y0055475D01*
X0037349Y0052475D02*
Y0052875D01*
Y0055075D02*
Y0055475D01*
X0035549D02*
X0037349D01*
X0035549Y0052475D02*
X0037349D01*
Y0053475D02*
Y0054475D01*
X0035549Y0053375D02*
Y0054475D01*
X0154121Y0035925D02*
X0156521D01*
X0154121Y0034725D02*
X0156521D01*
X0154121D02*
Y0035925D01*
X0156521Y0034725D02*
Y0035925D01*
X0063716Y0084304D02*
X0065316D01*
X0063716Y0081304D02*
X0065316D01*
X0063716D02*
Y0082304D01*
X0065316Y0081304D02*
Y0082304D01*
X0063716Y0083304D02*
Y0084304D01*
X0065316Y0083304D02*
Y0084304D01*
X0057015Y0089497D02*
X0058015D01*
X0057015Y0091097D02*
X0058015D01*
X0055015Y0089497D02*
X0056015D01*
X0055015Y0091097D02*
X0056015D01*
X0055015Y0089497D02*
Y0091097D01*
X0058015Y0089497D02*
Y0091097D01*
X0040859Y0043607D02*
Y0044507D01*
X0039659Y0043607D02*
Y0044507D01*
X0040859D01*
X0039659Y0042107D02*
X0040859D01*
Y0043007D01*
X0039659Y0042107D02*
Y0043007D01*
X0037627Y0052521D02*
Y0053421D01*
X0038827Y0052521D02*
Y0053421D01*
X0037627Y0052521D02*
X0038827D01*
X0037627Y0054921D02*
X0038827D01*
X0037627Y0054021D02*
Y0054921D01*
X0038827Y0054021D02*
Y0054921D01*
X0036814Y0045258D02*
Y0046158D01*
X0035614Y0045258D02*
Y0046158D01*
X0036814D01*
X0035614Y0043758D02*
X0036814D01*
Y0044658D01*
X0035614Y0043758D02*
Y0044658D01*
X0057704Y0046898D02*
X0058604D01*
X0057704Y0048098D02*
X0058604D01*
Y0046898D02*
Y0048098D01*
X0056204Y0046898D02*
Y0048098D01*
Y0046898D02*
X0057104D01*
X0056204Y0048098D02*
X0057104D01*
X0046044Y0042002D02*
X0046944D01*
X0046044Y0040802D02*
X0046944D01*
X0046044D02*
Y0042002D01*
X0048444Y0040802D02*
Y0042002D01*
X0047544D02*
X0048444D01*
X0047544Y0040802D02*
X0048444D01*
X0037523Y0041945D02*
X0038423D01*
X0037523Y0043145D02*
X0038423D01*
Y0041945D02*
Y0043145D01*
X0036023Y0041945D02*
Y0043145D01*
Y0041945D02*
X0036923D01*
X0036023Y0043145D02*
X0036923D01*
X0056204Y0046085D02*
X0057104D01*
X0056204Y0044885D02*
X0057104D01*
X0056204D02*
Y0046085D01*
X0058604Y0044885D02*
Y0046085D01*
X0057704D02*
X0058604D01*
X0057704Y0044885D02*
X0058604D01*
X0053615Y0034255D02*
X0054515D01*
X0053615Y0033055D02*
X0054515D01*
X0053615D02*
Y0034255D01*
X0056015Y0033055D02*
Y0034255D01*
X0055115D02*
X0056015D01*
X0055115Y0033055D02*
X0056015D01*
X0038592Y0043758D02*
Y0046158D01*
X0037392Y0043758D02*
Y0046158D01*
X0038592D01*
X0037392Y0043758D02*
X0038592D01*
X0050257Y0037916D02*
Y0040316D01*
X0049057Y0037916D02*
Y0040316D01*
X0050257D01*
X0049057Y0037916D02*
X0050257D01*
X0047152D02*
Y0040316D01*
X0048352Y0037916D02*
Y0040316D01*
X0047152Y0037916D02*
X0048352D01*
X0047152Y0040316D02*
X0048352D01*
X0035017Y0047949D02*
Y0050349D01*
X0033817Y0047949D02*
Y0050349D01*
X0035017D01*
X0033817Y0047949D02*
X0035017D01*
X0033944Y0038297D02*
Y0040697D01*
X0035144Y0038297D02*
Y0040697D01*
X0033944Y0038297D02*
X0035144D01*
X0033944Y0040697D02*
X0035144D01*
X0036795Y0038297D02*
Y0040697D01*
X0035595Y0038297D02*
Y0040697D01*
X0036795D01*
X0035595Y0038297D02*
X0036795D01*
X0053615Y0034687D02*
X0056015D01*
X0053615Y0035887D02*
X0056015D01*
Y0034687D02*
Y0035887D01*
X0053615Y0034687D02*
Y0035887D01*
X0153220Y0084166D02*
X0155620D01*
X0153220Y0082966D02*
X0155620D01*
X0153220D02*
Y0084166D01*
X0155620Y0082966D02*
Y0084166D01*
X0153220Y0085817D02*
X0155620D01*
X0153220Y0084617D02*
X0155620D01*
X0153220D02*
Y0085817D01*
X0155620Y0084617D02*
Y0085817D01*
X0153232Y0087468D02*
X0155632D01*
X0153232Y0086268D02*
X0155632D01*
X0153232D02*
Y0087468D01*
X0155632Y0086268D02*
Y0087468D01*
X0036519Y0033366D02*
X0038919D01*
X0036519Y0032166D02*
X0038919D01*
X0036519D02*
Y0033366D01*
X0038919Y0032166D02*
Y0033366D01*
X0045270Y0033620D02*
X0047670D01*
X0045270Y0032420D02*
X0047670D01*
X0045270D02*
Y0033620D01*
X0047670Y0032420D02*
Y0033620D01*
X0154121Y0041640D02*
X0156521D01*
X0154121Y0040440D02*
X0156521D01*
X0154121D02*
Y0041640D01*
X0156521Y0040440D02*
Y0041640D01*
X0154121Y0039862D02*
X0156521D01*
X0154121Y0038662D02*
X0156521D01*
X0154121D02*
Y0039862D01*
X0156521Y0038662D02*
Y0039862D01*
X0154121Y0037830D02*
X0156521D01*
X0154121Y0036630D02*
X0156521D01*
X0154121D02*
Y0037830D01*
X0156521Y0036630D02*
Y0037830D01*
X0043338Y0047071D02*
G03*
X0043338Y0047071I-0000500J0000000D01*
G01*
X0048938Y0046171D02*
Y0053171D01*
X0041938Y0046171D02*
Y0053171D01*
X0048938D01*
X0041938Y0046171D02*
X0048938D01*
X0055779Y0088238D02*
X0059329D01*
X0055779Y0081688D02*
X0059329D01*
X0055779D02*
Y0088238D01*
X0059329Y0081688D02*
Y0088238D01*
X0038216Y0037947D02*
Y0041047D01*
X0040016Y0037947D02*
Y0041047D01*
X0038216D02*
X0040016D01*
X0038216Y0037947D02*
X0040016D01*
X0044938Y0049671D02*
X0045938D01*
X0045438Y0049171D02*
Y0050171D01*
X0057554Y0084463D02*
Y0085463D01*
X0057054Y0084963D02*
X0058054D01*
X0038616Y0039497D02*
X0039616D01*
X0039116Y0038997D02*
Y0039997D01*
D18*
X0168021Y0080486D02*
Y0098171D01*
Y0030988D02*
Y0048673D01*
X0026416Y0098171D02*
X0168021D01*
X0026416Y0030988D02*
X0168021D01*
X0026416D02*
X0026416Y0098171D01*
X0168021Y0048673D02*
Y0080486D01*
X0165887Y0072110D02*
X0165379D01*
X0165633D01*
Y0070841D01*
X0165379Y0070587D01*
X0165125D01*
X0164871Y0070841D01*
X0166395Y0071856D02*
X0166649Y0072110D01*
X0167157D01*
X0167411Y0071856D01*
Y0071602D01*
X0167157Y0071348D01*
X0166903D01*
X0167157D01*
X0167411Y0071094D01*
Y0070841D01*
X0167157Y0070587D01*
X0166649D01*
X0166395Y0070841D01*
X0050930Y0093345D02*
Y0091821D01*
X0051946D01*
X0052454Y0093345D02*
Y0091821D01*
X0053215D01*
X0053469Y0092075D01*
Y0093091D01*
X0053215Y0093345D01*
X0052454D01*
X0053977Y0091821D02*
X0054485D01*
X0054231D01*
Y0093345D01*
X0053977Y0093091D01*
X0051670Y0035941D02*
Y0037465D01*
X0052432D01*
X0052686Y0037211D01*
Y0036703D01*
X0052432Y0036449D01*
X0051670D01*
X0052178D02*
X0052686Y0035941D01*
X0054209D02*
X0053193D01*
X0054209Y0036957D01*
Y0037211D01*
X0053955Y0037465D01*
X0053447D01*
X0053193Y0037211D01*
X0062614Y0091821D02*
Y0093345D01*
X0063376D01*
X0063630Y0093091D01*
Y0092583D01*
X0063376Y0092329D01*
X0062614D01*
X0063122D02*
X0063630Y0091821D01*
X0064138Y0092075D02*
X0064391Y0091821D01*
X0064899D01*
X0065153Y0092075D01*
Y0093091D01*
X0064899Y0093345D01*
X0064391D01*
X0064138Y0093091D01*
Y0092837D01*
X0064391Y0092583D01*
X0065153D01*
X0063722Y0090678D02*
X0063468Y0090932D01*
X0062960D01*
X0062706Y0090678D01*
Y0089662D01*
X0062960Y0089408D01*
X0063468D01*
X0063722Y0089662D01*
X0064230Y0090678D02*
X0064483Y0090932D01*
X0064991D01*
X0065245Y0090678D01*
Y0090424D01*
X0064991Y0090170D01*
X0064737D01*
X0064991D01*
X0065245Y0089916D01*
Y0089662D01*
X0064991Y0089408D01*
X0064483D01*
X0064230Y0089662D01*
X0049137Y0056388D02*
X0048883Y0056642D01*
X0048375D01*
X0048121Y0056388D01*
Y0055372D01*
X0048375Y0055118D01*
X0048883D01*
X0049137Y0055372D01*
X0049645Y0055118D02*
X0050152D01*
X0049898D01*
Y0056642D01*
X0049645Y0056388D01*
X0051930Y0055118D02*
X0050914D01*
X0051930Y0056134D01*
Y0056388D01*
X0051676Y0056642D01*
X0051168D01*
X0050914Y0056388D01*
X0055143Y0077343D02*
X0054635D01*
X0054889D01*
Y0076073D01*
X0054635Y0075819D01*
X0054381D01*
X0054127Y0076073D01*
X0056667Y0075819D02*
X0055651D01*
X0056667Y0076835D01*
Y0077089D01*
X0056413Y0077343D01*
X0055905D01*
X0055651Y0077089D01*
X0073177Y0083159D02*
X0072669D01*
X0072923D01*
Y0081890D01*
X0072669Y0081636D01*
X0072415D01*
X0072161Y0081890D01*
X0074701Y0083159D02*
X0073685D01*
Y0082397D01*
X0074193Y0082651D01*
X0074447D01*
X0074701Y0082397D01*
Y0081890D01*
X0074447Y0081636D01*
X0073939D01*
X0073685Y0081890D01*
X0139852Y0082397D02*
X0139344D01*
X0139598D01*
Y0081128D01*
X0139344Y0080874D01*
X0139090D01*
X0138836Y0081128D01*
X0140360Y0082397D02*
X0141376D01*
Y0082143D01*
X0140360Y0081128D01*
Y0080874D01*
X0066167Y0058166D02*
X0065659D01*
X0065913D01*
Y0056896D01*
X0065659Y0056642D01*
X0065405D01*
X0065151Y0056896D01*
X0066675D02*
X0066928Y0056642D01*
X0067436D01*
X0067690Y0056896D01*
Y0057912D01*
X0067436Y0058166D01*
X0066928D01*
X0066675Y0057912D01*
Y0057658D01*
X0066928Y0057404D01*
X0067690D01*
X0028702Y0097155D02*
X0028194D01*
X0028448D01*
Y0095885D01*
X0028194Y0095631D01*
X0027940D01*
X0027686Y0095885D01*
X0029210Y0095631D02*
Y0097155D01*
X0029971D01*
X0030225Y0096901D01*
Y0096393D01*
X0029971Y0096139D01*
X0029210D01*
X0030733Y0095631D02*
X0031241D01*
X0030987D01*
Y0097155D01*
X0030733Y0096901D01*
X0035763Y0057810D02*
Y0056286D01*
X0036779D01*
X0037287D02*
X0037795D01*
X0037541D01*
Y0057810D01*
X0037287Y0057556D01*
X0156972Y0033801D02*
Y0035324D01*
X0157734D01*
X0157988Y0035071D01*
Y0034563D01*
X0157734Y0034309D01*
X0156972D01*
X0157480D02*
X0157988Y0033801D01*
X0158495D02*
X0159003D01*
X0158749D01*
Y0035324D01*
X0158495Y0035071D01*
X0159765D02*
X0160019Y0035324D01*
X0160527D01*
X0160781Y0035071D01*
Y0034817D01*
X0160527Y0034563D01*
X0160781Y0034309D01*
Y0034055D01*
X0160527Y0033801D01*
X0160019D01*
X0159765Y0034055D01*
Y0034309D01*
X0160019Y0034563D01*
X0159765Y0034817D01*
Y0035071D01*
X0160019Y0034563D02*
X0160527D01*
X0033094Y0088138D02*
X0032840Y0088392D01*
X0032332D01*
X0032078Y0088138D01*
Y0087884D01*
X0032332Y0087630D01*
X0032840D01*
X0033094Y0087376D01*
Y0087122D01*
X0032840Y0086868D01*
X0032332D01*
X0032078Y0087122D01*
X0033602Y0088392D02*
Y0086868D01*
X0034110Y0087376D01*
X0034617Y0086868D01*
Y0088392D01*
X0035125Y0086868D02*
X0035633D01*
X0035379D01*
Y0088392D01*
X0035125Y0088138D01*
X0040465Y0057178D02*
Y0055908D01*
X0040719Y0055654D01*
X0041227D01*
X0041481Y0055908D01*
Y0057178D01*
X0041989Y0055654D02*
X0042496D01*
X0042242D01*
Y0057178D01*
X0041989Y0056924D01*
X0059205Y0080899D02*
Y0079629D01*
X0059459Y0079375D01*
X0059967D01*
X0060221Y0079629D01*
Y0080899D01*
X0061744Y0079375D02*
X0060729D01*
X0061744Y0080391D01*
Y0080645D01*
X0061490Y0080899D01*
X0060982D01*
X0060729Y0080645D01*
X0038735Y0037592D02*
Y0036322D01*
X0038989Y0036068D01*
X0039497D01*
X0039751Y0036322D01*
Y0037592D01*
X0040259Y0037338D02*
X0040512Y0037592D01*
X0041020D01*
X0041274Y0037338D01*
Y0037084D01*
X0041020Y0036830D01*
X0040766D01*
X0041020D01*
X0041274Y0036576D01*
Y0036322D01*
X0041020Y0036068D01*
X0040512D01*
X0040259Y0036322D01*
X0053469Y0042646D02*
Y0041377D01*
X0053723Y0041123D01*
X0054231D01*
X0054484Y0041377D01*
Y0042646D01*
X0055754Y0041123D02*
Y0042646D01*
X0054992Y0041884D01*
X0056008D01*
X0031078Y0061163D02*
Y0059639D01*
X0031840D01*
X0032094Y0059893D01*
Y0060909D01*
X0031840Y0061163D01*
X0031078D01*
X0032602Y0059639D02*
Y0060655D01*
X0033110Y0061163D01*
X0033618Y0060655D01*
Y0059639D01*
Y0060401D01*
X0032602D01*
X0034125Y0059639D02*
X0034633D01*
X0034379D01*
Y0061163D01*
X0034125Y0060909D01*
X0033020Y0047244D02*
X0034036Y0045720D01*
Y0047244D02*
X0033020Y0045720D01*
X0034544D02*
X0035051D01*
X0034797D01*
Y0047244D01*
X0034544Y0046990D01*
X0065125Y0074091D02*
X0064617D01*
X0064871D01*
Y0072821D01*
X0064617Y0072567D01*
X0064363D01*
X0064109Y0072821D01*
X0065633Y0072567D02*
X0066141D01*
X0065887D01*
Y0074091D01*
X0065633Y0073837D01*
X0069240Y0095605D02*
X0069494Y0095859D01*
X0070002D01*
X0070256Y0095605D01*
Y0095351D01*
X0070002Y0095097D01*
X0069748D01*
X0070002D01*
X0070256Y0094843D01*
Y0094590D01*
X0070002Y0094336D01*
X0069494D01*
X0069240Y0094590D01*
X0070764Y0095859D02*
Y0094843D01*
X0071272Y0094336D01*
X0071780Y0094843D01*
Y0095859D01*
X0072287Y0095605D02*
X0072541Y0095859D01*
X0073049D01*
X0073303Y0095605D01*
Y0095351D01*
X0073049Y0095097D01*
X0072795D01*
X0073049D01*
X0073303Y0094843D01*
Y0094590D01*
X0073049Y0094336D01*
X0072541D01*
X0072287Y0094590D01*
X0076350Y0094336D02*
X0075334D01*
X0076350Y0095351D01*
Y0095605D01*
X0076096Y0095859D01*
X0075588D01*
X0075334Y0095605D01*
X0154203Y0082143D02*
X0153949Y0082397D01*
X0153441D01*
X0153187Y0082143D01*
Y0081128D01*
X0153441Y0080874D01*
X0153949D01*
X0154203Y0081128D01*
Y0081635D01*
X0153695D01*
X0154711Y0080874D02*
Y0082397D01*
X0155727Y0080874D01*
Y0082397D01*
X0156234D02*
Y0080874D01*
X0156996D01*
X0157250Y0081128D01*
Y0082143D01*
X0156996Y0082397D01*
X0156234D01*
X0160297Y0080874D02*
X0159281D01*
X0160297Y0081889D01*
Y0082143D01*
X0160043Y0082397D01*
X0159535D01*
X0159281Y0082143D01*
X0075819Y0040640D02*
X0075565Y0040894D01*
X0075057D01*
X0074803Y0040640D01*
Y0039624D01*
X0075057Y0039370D01*
X0075565D01*
X0075819Y0039624D01*
Y0040132D01*
X0075311D01*
X0076327Y0039370D02*
Y0040894D01*
X0077342Y0039370D01*
Y0040894D01*
X0077850D02*
Y0039370D01*
X0078612D01*
X0078866Y0039624D01*
Y0040640D01*
X0078612Y0040894D01*
X0077850D01*
X0081659Y0039370D02*
Y0040894D01*
X0080897Y0040132D01*
X0081913D01*
X0078257Y0060985D02*
X0077749D01*
X0078003D01*
Y0059715D01*
X0077749Y0059461D01*
X0077495D01*
X0077241Y0059715D01*
X0079527Y0059461D02*
Y0060985D01*
X0078765Y0060223D01*
X0079781D01*
X0029573Y0076980D02*
X0029065D01*
X0029319D01*
Y0075710D01*
X0029065Y0075456D01*
X0028811D01*
X0028557Y0075710D01*
X0030081Y0075456D02*
Y0076980D01*
X0030843D01*
X0031097Y0076726D01*
Y0076218D01*
X0030843Y0075964D01*
X0030081D01*
X0032620Y0075456D02*
X0031604D01*
X0032620Y0076472D01*
Y0076726D01*
X0032366Y0076980D01*
X0031858D01*
X0031604Y0076726D01*
X0064947Y0086385D02*
X0064694Y0086639D01*
X0064186D01*
X0063932Y0086385D01*
Y0085369D01*
X0064186Y0085115D01*
X0064694D01*
X0064947Y0085369D01*
X0065455Y0085115D02*
X0065963D01*
X0065709D01*
Y0086639D01*
X0065455Y0086385D01*
X0052832Y0090805D02*
X0052578Y0091059D01*
X0052070D01*
X0051816Y0090805D01*
Y0089789D01*
X0052070Y0089535D01*
X0052578D01*
X0052832Y0089789D01*
X0054355Y0089535D02*
X0053340D01*
X0054355Y0090551D01*
Y0090805D01*
X0054101Y0091059D01*
X0053593D01*
X0053340Y0090805D01*
X0042468Y0042033D02*
X0042215Y0042287D01*
X0041707D01*
X0041453Y0042033D01*
Y0041017D01*
X0041707Y0040763D01*
X0042215D01*
X0042468Y0041017D01*
X0043738Y0040763D02*
Y0042287D01*
X0042976Y0041525D01*
X0043992D01*
X0038836Y0056997D02*
X0038582Y0057251D01*
X0038075D01*
X0037821Y0056997D01*
Y0055982D01*
X0038075Y0055728D01*
X0038582D01*
X0038836Y0055982D01*
X0040360Y0057251D02*
X0039344D01*
Y0056489D01*
X0039852Y0056743D01*
X0040106D01*
X0040360Y0056489D01*
Y0055982D01*
X0040106Y0055728D01*
X0039598D01*
X0039344Y0055982D01*
X0033566Y0045593D02*
X0033312Y0045847D01*
X0032804D01*
X0032550Y0045593D01*
Y0044577D01*
X0032804Y0044323D01*
X0033312D01*
X0033566Y0044577D01*
X0035089Y0045847D02*
X0034581Y0045593D01*
X0034073Y0045085D01*
Y0044577D01*
X0034327Y0044323D01*
X0034835D01*
X0035089Y0044577D01*
Y0044831D01*
X0034835Y0045085D01*
X0034073D01*
X0060706Y0048006D02*
X0060452Y0048260D01*
X0059944D01*
X0059690Y0048006D01*
Y0046990D01*
X0059944Y0046736D01*
X0060452D01*
X0060706Y0046990D01*
X0061214Y0048260D02*
X0062229D01*
Y0048006D01*
X0061214Y0046990D01*
Y0046736D01*
X0043561Y0040513D02*
X0043307Y0040259D01*
Y0039751D01*
X0043561Y0039497D01*
X0044577D01*
X0044831Y0039751D01*
Y0040259D01*
X0044577Y0040513D01*
X0043561Y0041021D02*
X0043307Y0041274D01*
Y0041782D01*
X0043561Y0042036D01*
X0043815D01*
X0044069Y0041782D01*
X0044323Y0042036D01*
X0044577D01*
X0044831Y0041782D01*
Y0041274D01*
X0044577Y0041021D01*
X0044323D01*
X0044069Y0041274D01*
X0043815Y0041021D01*
X0043561D01*
X0044069Y0041274D02*
Y0041782D01*
X0033782Y0043053D02*
X0033528Y0043307D01*
X0033020D01*
X0032766Y0043053D01*
Y0042037D01*
X0033020Y0041783D01*
X0033528D01*
X0033782Y0042037D01*
X0034290D02*
X0034543Y0041783D01*
X0035051D01*
X0035305Y0042037D01*
Y0043053D01*
X0035051Y0043307D01*
X0034543D01*
X0034290Y0043053D01*
Y0042799D01*
X0034543Y0042545D01*
X0035305D01*
X0060071Y0045739D02*
X0059817Y0045993D01*
X0059309D01*
X0059055Y0045739D01*
Y0044723D01*
X0059309Y0044469D01*
X0059817D01*
X0060071Y0044723D01*
X0060579Y0044469D02*
X0061086D01*
X0060833D01*
Y0045993D01*
X0060579Y0045739D01*
X0061848D02*
X0062102Y0045993D01*
X0062610D01*
X0062864Y0045739D01*
Y0044723D01*
X0062610Y0044469D01*
X0062102D01*
X0061848Y0044723D01*
Y0045739D01*
X0057609Y0034163D02*
X0057355Y0034417D01*
X0056847D01*
X0056593Y0034163D01*
Y0033147D01*
X0056847Y0032893D01*
X0057355D01*
X0057609Y0033147D01*
X0058117Y0032893D02*
X0058624D01*
X0058370D01*
Y0034417D01*
X0058117Y0034163D01*
X0059386Y0032893D02*
X0059894D01*
X0059640D01*
Y0034417D01*
X0059386Y0034163D01*
X0138074Y0060172D02*
X0137566D01*
X0137820D01*
Y0058903D01*
X0137566Y0058649D01*
X0137312D01*
X0137058Y0058903D01*
X0139598Y0060172D02*
X0139090Y0059918D01*
X0138582Y0059410D01*
Y0058903D01*
X0138836Y0058649D01*
X0139344D01*
X0139598Y0058903D01*
Y0059156D01*
X0139344Y0059410D01*
X0138582D01*
X0043053Y0036068D02*
X0042545D01*
X0042799D01*
Y0034798D01*
X0042545Y0034544D01*
X0042291D01*
X0042037Y0034798D01*
X0043561Y0035814D02*
X0043814Y0036068D01*
X0044322D01*
X0044576Y0035814D01*
Y0035560D01*
X0044322Y0035306D01*
X0044576Y0035052D01*
Y0034798D01*
X0044322Y0034544D01*
X0043814D01*
X0043561Y0034798D01*
Y0035052D01*
X0043814Y0035306D01*
X0043561Y0035560D01*
Y0035814D01*
X0043814Y0035306D02*
X0044322D01*
X0160147Y0089916D02*
X0159639D01*
X0159893D01*
Y0088646D01*
X0159639Y0088392D01*
X0159385D01*
X0159131Y0088646D01*
X0160655Y0088392D02*
X0161162D01*
X0160908D01*
Y0089916D01*
X0160655Y0089662D01*
X0161924D02*
X0162178Y0089916D01*
X0162686D01*
X0162940Y0089662D01*
Y0089408D01*
X0162686Y0089154D01*
X0162940Y0088900D01*
Y0088646D01*
X0162686Y0088392D01*
X0162178D01*
X0161924Y0088646D01*
Y0088900D01*
X0162178Y0089154D01*
X0161924Y0089408D01*
Y0089662D01*
X0162178Y0089154D02*
X0162686D01*
X0159893Y0092964D02*
X0159385D01*
X0159639D01*
Y0091694D01*
X0159385Y0091440D01*
X0159131D01*
X0158877Y0091694D01*
X0161416Y0091440D02*
X0160401D01*
X0161416Y0092456D01*
Y0092710D01*
X0161162Y0092964D01*
X0160654D01*
X0160401Y0092710D01*
X0161924Y0091694D02*
X0162178Y0091440D01*
X0162686D01*
X0162940Y0091694D01*
Y0092710D01*
X0162686Y0092964D01*
X0162178D01*
X0161924Y0092710D01*
Y0092456D01*
X0162178Y0092202D01*
X0162940D01*
X0160147Y0095885D02*
X0159639D01*
X0159893D01*
Y0094615D01*
X0159639Y0094361D01*
X0159385D01*
X0159131Y0094615D01*
X0160655Y0095631D02*
X0160908Y0095885D01*
X0161416D01*
X0161670Y0095631D01*
Y0095377D01*
X0161416Y0095123D01*
X0161162D01*
X0161416D01*
X0161670Y0094869D01*
Y0094615D01*
X0161416Y0094361D01*
X0160908D01*
X0160655Y0094615D01*
X0162940Y0094361D02*
Y0095885D01*
X0162178Y0095123D01*
X0163194D01*
X0160528Y0053340D02*
X0160020D01*
X0160274D01*
Y0052070D01*
X0160020Y0051816D01*
X0159766D01*
X0159512Y0052070D01*
X0161036Y0053086D02*
X0161289Y0053340D01*
X0161797D01*
X0162051Y0053086D01*
Y0052832D01*
X0161797Y0052578D01*
X0162051Y0052324D01*
Y0052070D01*
X0161797Y0051816D01*
X0161289D01*
X0161036Y0052070D01*
Y0052324D01*
X0161289Y0052578D01*
X0161036Y0052832D01*
Y0053086D01*
X0161289Y0052578D02*
X0161797D01*
X0163321Y0051816D02*
Y0053340D01*
X0162559Y0052578D01*
X0163575D01*
X0160401Y0050165D02*
X0159893D01*
X0160147D01*
Y0048895D01*
X0159893Y0048641D01*
X0159639D01*
X0159385Y0048895D01*
X0160909Y0049911D02*
X0161162Y0050165D01*
X0161670D01*
X0161924Y0049911D01*
Y0049657D01*
X0161670Y0049403D01*
X0161924Y0049149D01*
Y0048895D01*
X0161670Y0048641D01*
X0161162D01*
X0160909Y0048895D01*
Y0049149D01*
X0161162Y0049403D01*
X0160909Y0049657D01*
Y0049911D01*
X0161162Y0049403D02*
X0161670D01*
X0163448Y0050165D02*
X0162432D01*
Y0049403D01*
X0162940Y0049657D01*
X0163194D01*
X0163448Y0049403D01*
Y0048895D01*
X0163194Y0048641D01*
X0162686D01*
X0162432Y0048895D01*
X0160655Y0047244D02*
X0160147D01*
X0160401D01*
Y0045974D01*
X0160147Y0045720D01*
X0159893D01*
X0159639Y0045974D01*
X0161163Y0046990D02*
X0161416Y0047244D01*
X0161924D01*
X0162178Y0046990D01*
Y0046736D01*
X0161924Y0046482D01*
X0162178Y0046228D01*
Y0045974D01*
X0161924Y0045720D01*
X0161416D01*
X0161163Y0045974D01*
Y0046228D01*
X0161416Y0046482D01*
X0161163Y0046736D01*
Y0046990D01*
X0161416Y0046482D02*
X0161924D01*
X0163702Y0047244D02*
X0163194Y0046990D01*
X0162686Y0046482D01*
Y0045974D01*
X0162940Y0045720D01*
X0163448D01*
X0163702Y0045974D01*
Y0046228D01*
X0163448Y0046482D01*
X0162686D01*
X0160655Y0044323D02*
X0160147D01*
X0160401D01*
Y0043053D01*
X0160147Y0042799D01*
X0159893D01*
X0159639Y0043053D01*
X0161163Y0044069D02*
X0161416Y0044323D01*
X0161924D01*
X0162178Y0044069D01*
Y0043815D01*
X0161924Y0043561D01*
X0162178Y0043307D01*
Y0043053D01*
X0161924Y0042799D01*
X0161416D01*
X0161163Y0043053D01*
Y0043307D01*
X0161416Y0043561D01*
X0161163Y0043815D01*
Y0044069D01*
X0161416Y0043561D02*
X0161924D01*
X0162686Y0044323D02*
X0163702D01*
Y0044069D01*
X0162686Y0043053D01*
Y0042799D01*
X0037357Y0046355D02*
Y0047879D01*
X0038119D01*
X0038373Y0047625D01*
Y0047117D01*
X0038119Y0046863D01*
X0037357D01*
X0037865D02*
X0038373Y0046355D01*
X0038880D02*
X0039388D01*
X0039134D01*
Y0047879D01*
X0038880Y0047625D01*
X0049149Y0036068D02*
Y0037592D01*
X0049911D01*
X0050165Y0037338D01*
Y0036830D01*
X0049911Y0036576D01*
X0049149D01*
X0049657D02*
X0050165Y0036068D01*
X0050673Y0037338D02*
X0050926Y0037592D01*
X0051434D01*
X0051688Y0037338D01*
Y0037084D01*
X0051434Y0036830D01*
X0051180D01*
X0051434D01*
X0051688Y0036576D01*
Y0036322D01*
X0051434Y0036068D01*
X0050926D01*
X0050673Y0036322D01*
X0045720Y0036068D02*
Y0037592D01*
X0046482D01*
X0046736Y0037338D01*
Y0036830D01*
X0046482Y0036576D01*
X0045720D01*
X0046228D02*
X0046736Y0036068D01*
X0048005D02*
Y0037592D01*
X0047244Y0036830D01*
X0048259D01*
X0033528Y0047752D02*
X0032004D01*
Y0048514D01*
X0032258Y0048768D01*
X0032766D01*
X0033020Y0048514D01*
Y0047752D01*
Y0048260D02*
X0033528Y0048768D01*
X0032004Y0050291D02*
Y0049276D01*
X0032766D01*
X0032512Y0049783D01*
Y0050037D01*
X0032766Y0050291D01*
X0033274D01*
X0033528Y0050037D01*
Y0049529D01*
X0033274Y0049276D01*
X0032512Y0036449D02*
Y0037973D01*
X0033274D01*
X0033528Y0037719D01*
Y0037211D01*
X0033274Y0036957D01*
X0032512D01*
X0033020D02*
X0033528Y0036449D01*
X0035051Y0037973D02*
X0034543Y0037719D01*
X0034036Y0037211D01*
Y0036703D01*
X0034289Y0036449D01*
X0034797D01*
X0035051Y0036703D01*
Y0036957D01*
X0034797Y0037211D01*
X0034036D01*
X0035560Y0036322D02*
Y0037846D01*
X0036322D01*
X0036576Y0037592D01*
Y0037084D01*
X0036322Y0036830D01*
X0035560D01*
X0036068D02*
X0036576Y0036322D01*
X0037084Y0037846D02*
X0038099D01*
Y0037592D01*
X0037084Y0036576D01*
Y0036322D01*
X0056835Y0034525D02*
Y0036049D01*
X0057597D01*
X0057851Y0035795D01*
Y0035287D01*
X0057597Y0035033D01*
X0056835D01*
X0057343D02*
X0057851Y0034525D01*
X0058359Y0035795D02*
X0058613Y0036049D01*
X0059120D01*
X0059374Y0035795D01*
Y0035541D01*
X0059120Y0035287D01*
X0059374Y0035033D01*
Y0034779D01*
X0059120Y0034525D01*
X0058613D01*
X0058359Y0034779D01*
Y0035033D01*
X0058613Y0035287D01*
X0058359Y0035541D01*
Y0035795D01*
X0058613Y0035287D02*
X0059120D01*
X0156706Y0082296D02*
Y0083820D01*
X0157468D01*
X0157722Y0083566D01*
Y0083058D01*
X0157468Y0082804D01*
X0156706D01*
X0157214D02*
X0157722Y0082296D01*
X0158230D02*
X0158737D01*
X0158483D01*
Y0083820D01*
X0158230Y0083566D01*
X0159499D02*
X0159753Y0083820D01*
X0160261D01*
X0160515Y0083566D01*
Y0082550D01*
X0160261Y0082296D01*
X0159753D01*
X0159499Y0082550D01*
Y0083566D01*
X0156706Y0084328D02*
Y0085852D01*
X0157468D01*
X0157722Y0085598D01*
Y0085090D01*
X0157468Y0084836D01*
X0156706D01*
X0157214D02*
X0157722Y0084328D01*
X0158230D02*
X0158737D01*
X0158483D01*
Y0085852D01*
X0158230Y0085598D01*
X0159499Y0084328D02*
X0160007D01*
X0159753D01*
Y0085852D01*
X0159499Y0085598D01*
X0156718Y0086106D02*
Y0087630D01*
X0157480D01*
X0157734Y0087376D01*
Y0086868D01*
X0157480Y0086614D01*
X0156718D01*
X0157226D02*
X0157734Y0086106D01*
X0158242D02*
X0158749D01*
X0158495D01*
Y0087630D01*
X0158242Y0087376D01*
X0160527Y0086106D02*
X0159511D01*
X0160527Y0087122D01*
Y0087376D01*
X0160273Y0087630D01*
X0159765D01*
X0159511Y0087376D01*
X0031623Y0032258D02*
Y0033782D01*
X0032385D01*
X0032639Y0033528D01*
Y0033020D01*
X0032385Y0032766D01*
X0031623D01*
X0032131D02*
X0032639Y0032258D01*
X0033147D02*
X0033654D01*
X0033400D01*
Y0033782D01*
X0033147Y0033528D01*
X0034416D02*
X0034670Y0033782D01*
X0035178D01*
X0035432Y0033528D01*
Y0033274D01*
X0035178Y0033020D01*
X0034924D01*
X0035178D01*
X0035432Y0032766D01*
Y0032512D01*
X0035178Y0032258D01*
X0034670D01*
X0034416Y0032512D01*
X0048260Y0032131D02*
Y0033655D01*
X0049022D01*
X0049276Y0033401D01*
Y0032893D01*
X0049022Y0032639D01*
X0048260D01*
X0048768D02*
X0049276Y0032131D01*
X0049784D02*
X0050291D01*
X0050037D01*
Y0033655D01*
X0049784Y0033401D01*
X0051815Y0032131D02*
Y0033655D01*
X0051053Y0032893D01*
X0052069D01*
X0157226Y0040151D02*
Y0041674D01*
X0157988D01*
X0158242Y0041421D01*
Y0040913D01*
X0157988Y0040659D01*
X0157226D01*
X0157734D02*
X0158242Y0040151D01*
X0158749D02*
X0159257D01*
X0159003D01*
Y0041674D01*
X0158749Y0041421D01*
X0161035Y0041674D02*
X0160019D01*
Y0040913D01*
X0160527Y0041167D01*
X0160781D01*
X0161035Y0040913D01*
Y0040405D01*
X0160781Y0040151D01*
X0160273D01*
X0160019Y0040405D01*
X0157099Y0038119D02*
Y0039642D01*
X0157861D01*
X0158115Y0039389D01*
Y0038881D01*
X0157861Y0038627D01*
X0157099D01*
X0157607D02*
X0158115Y0038119D01*
X0158622D02*
X0159130D01*
X0158876D01*
Y0039642D01*
X0158622Y0039389D01*
X0160908Y0039642D02*
X0160400Y0039389D01*
X0159892Y0038881D01*
Y0038373D01*
X0160146Y0038119D01*
X0160654D01*
X0160908Y0038373D01*
Y0038627D01*
X0160654Y0038881D01*
X0159892D01*
X0157099Y0036087D02*
Y0037610D01*
X0157861D01*
X0158115Y0037357D01*
Y0036849D01*
X0157861Y0036595D01*
X0157099D01*
X0157607D02*
X0158115Y0036087D01*
X0158622D02*
X0159130D01*
X0158876D01*
Y0037610D01*
X0158622Y0037357D01*
X0159892Y0037610D02*
X0160908D01*
Y0037357D01*
X0159892Y0036341D01*
Y0036087D01*
X0074676Y0048641D02*
X0074930Y0048895D01*
X0075438D01*
X0075692Y0048641D01*
Y0048387D01*
X0075438Y0048133D01*
X0075184D01*
X0075438D01*
X0075692Y0047879D01*
Y0047625D01*
X0075438Y0047371D01*
X0074930D01*
X0074676Y0047625D01*
X0076200Y0048895D02*
Y0047879D01*
X0076707Y0047371D01*
X0077215Y0047879D01*
Y0048895D01*
X0077723Y0048641D02*
X0077977Y0048895D01*
X0078485D01*
X0078739Y0048641D01*
Y0048387D01*
X0078485Y0048133D01*
X0078231D01*
X0078485D01*
X0078739Y0047879D01*
Y0047625D01*
X0078485Y0047371D01*
X0077977D01*
X0077723Y0047625D01*
X0080770Y0047371D02*
X0081278D01*
X0081024D01*
Y0048895D01*
X0080770Y0048641D01*
X0071628Y0086614D02*
X0070612D01*
Y0085852D01*
X0071120Y0086106D01*
X0071374D01*
X0071628Y0085852D01*
Y0085344D01*
X0071374Y0085090D01*
X0070866D01*
X0070612Y0085344D01*
X0072136Y0086614D02*
Y0085598D01*
X0072643Y0085090D01*
X0073151Y0085598D01*
Y0086614D01*
X0155092Y0059918D02*
X0154838Y0060172D01*
X0154330D01*
X0154076Y0059918D01*
Y0058903D01*
X0154330Y0058649D01*
X0154838D01*
X0155092Y0058903D01*
Y0059410D01*
X0154584D01*
X0155600Y0058649D02*
Y0060172D01*
X0156616Y0058649D01*
Y0060172D01*
X0157123D02*
Y0058649D01*
X0157885D01*
X0158139Y0058903D01*
Y0059918D01*
X0157885Y0060172D01*
X0157123D01*
X0160170Y0058649D02*
X0160678D01*
X0160424D01*
Y0060172D01*
X0160170Y0059918D01*
X0062103Y0095377D02*
X0061849Y0095631D01*
X0061341D01*
X0061087Y0095377D01*
Y0094361D01*
X0061341Y0094107D01*
X0061849D01*
X0062103Y0094361D01*
Y0094869D01*
X0061595D01*
X0062611Y0094107D02*
Y0095631D01*
X0063626Y0094107D01*
Y0095631D01*
X0064134D02*
Y0094107D01*
X0064896D01*
X0065150Y0094361D01*
Y0095377D01*
X0064896Y0095631D01*
X0064134D01*
X0067181Y0095377D02*
X0067435Y0095631D01*
X0067943D01*
X0068197Y0095377D01*
Y0095123D01*
X0067943Y0094869D01*
X0067689D01*
X0067943D01*
X0068197Y0094615D01*
Y0094361D01*
X0067943Y0094107D01*
X0067435D01*
X0067181Y0094361D01*
D19*
X0045349Y0088088D02*
X0046799D01*
X0045349Y0086738D02*
Y0088088D01*
X0040249Y0086738D02*
X0045349D01*
X0040249D02*
Y0088088D01*
X0031799D02*
X0040249D01*
X0031799D02*
Y0097588D01*
X0046799D01*
Y0095188D02*
Y0097588D01*
Y0088088D02*
Y0090588D01*
X0047349D01*
Y0095188D01*
X0046799D02*
X0047349D01*
X0031842Y0086086D02*
X0043342D01*
Y0075336D02*
Y0086086D01*
X0031842Y0075336D02*
X0043342D01*
X0031842D02*
Y0086086D01*
X0050638Y0044471D02*
Y0054871D01*
X0040238Y0044471D02*
Y0054871D01*
X0050638D01*
X0040238Y0044471D02*
X0050638D01*
X0053229Y0088513D02*
X0061879D01*
X0053229Y0081413D02*
X0061879D01*
X0053229D02*
Y0088513D01*
X0061879Y0081413D02*
Y0088513D01*
X0037116Y0037697D02*
Y0041297D01*
X0041116Y0037697D02*
Y0041297D01*
X0037116D02*
X0041116D01*
X0037116Y0037697D02*
X0041116D01*
X0038380Y0046726D02*
Y0051826D01*
X0035280Y0046726D02*
X0038380D01*
X0035280D02*
Y0051826D01*
X0038380D01*
X0162180Y0063737D02*
Y0071777D01*
X0063880D02*
X0162180D01*
X0063880Y0063737D02*
Y0071777D01*
Y0063737D02*
X0162180D01*
X0040069Y0073667D02*
X0044569D01*
X0040069D02*
Y0074667D01*
X0037569D02*
X0040069D01*
X0037569Y0073667D02*
Y0074667D01*
X0028319Y0073667D02*
X0037569D01*
X0028319Y0061167D02*
Y0073667D01*
Y0061167D02*
X0037569D01*
Y0060167D02*
Y0061167D01*
Y0060167D02*
X0040069D01*
Y0061167D01*
X0044569D01*
Y0073667D01*
X0031402Y0058861D02*
X0035022D01*
Y0056201D02*
Y0058861D01*
X0031402Y0056201D02*
X0035022D01*
X0031402D02*
Y0058861D01*
M02*
