G04*
G04 #@! TF.GenerationSoftware,Altium Limited,Altium Designer,19.1.7 (138)*
G04*
G04 Layer_Color=128*
%FSAX43Y43*%
%MOMM*%
G71*
G01*
G75*
%ADD14C,0.200*%
%ADD15C,0.000*%
%ADD16C,0.127*%
%ADD17C,0.100*%
%ADD19C,0.050*%
%ADD89C,0.051*%
G36*
X0057829Y0091856D02*
X0055029D01*
Y0093056D01*
X0057829D01*
Y0091856D01*
D02*
G37*
G36*
X0038130Y0050376D02*
X0037630D01*
Y0051176D01*
X0038130D01*
Y0050376D01*
D02*
G37*
G36*
X0036030D02*
X0035530D01*
Y0051176D01*
X0036030D01*
Y0050376D01*
D02*
G37*
G36*
X0038130Y0048876D02*
X0037631D01*
Y0049676D01*
X0038130D01*
Y0048876D01*
D02*
G37*
G36*
X0036030D02*
X0035529D01*
Y0049676D01*
X0036030D01*
Y0048876D01*
D02*
G37*
G36*
X0038130Y0047376D02*
X0037630D01*
Y0048176D01*
X0038130D01*
Y0047376D01*
D02*
G37*
G36*
X0036030D02*
X0035529D01*
Y0048175D01*
X0036030D01*
Y0047376D01*
D02*
G37*
D14*
X0031112Y0058181D02*
G03*
X0031112Y0058181I-0000100J0000000D01*
G01*
D02*
G03*
X0031112Y0058181I-0000100J0000000D01*
G01*
D15*
X0054967Y0040284D02*
G03*
X0055577Y0040284I0000305J0000000D01*
G01*
X0054967D02*
G03*
X0055577Y0040284I0000305J0000000D01*
G01*
X0054078Y0038202D02*
Y0040284D01*
X0054967D01*
X0055577D01*
X0056466D01*
Y0038202D02*
Y0040284D01*
X0054078Y0038202D02*
X0056466D01*
Y0040107D02*
X0056872D01*
Y0039878D02*
Y0040107D01*
X0056466Y0039878D02*
X0056872D01*
X0056466D02*
Y0040107D01*
Y0039624D02*
X0056872D01*
Y0039370D02*
Y0039624D01*
X0056466Y0039370D02*
X0056872D01*
X0056466D02*
Y0039624D01*
Y0039116D02*
X0056872D01*
Y0038862D02*
Y0039116D01*
X0056466Y0038862D02*
X0056872D01*
X0056466D02*
Y0039116D01*
Y0038608D02*
X0056872D01*
Y0038379D02*
Y0038608D01*
X0056466Y0038379D02*
X0056872D01*
X0056466D02*
Y0038608D01*
X0053672Y0038379D02*
X0054078D01*
X0053672D02*
Y0038608D01*
X0054078D01*
Y0038379D02*
Y0038608D01*
X0053672Y0038862D02*
X0054078D01*
X0053672D02*
Y0039116D01*
X0054078D01*
Y0038862D02*
Y0039116D01*
X0053672Y0039370D02*
X0054078D01*
X0053672D02*
Y0039624D01*
X0054078D01*
Y0039370D02*
Y0039624D01*
X0053672Y0039878D02*
X0054078D01*
X0053672D02*
Y0040107D01*
X0054078D01*
Y0039878D02*
Y0040107D01*
Y0038202D02*
Y0040284D01*
X0054967D01*
X0055577D01*
X0056466D01*
Y0038202D02*
Y0040284D01*
X0054078Y0038202D02*
X0056466D01*
Y0040107D02*
X0056872D01*
Y0039878D02*
Y0040107D01*
X0056466Y0039878D02*
X0056872D01*
X0056466D02*
Y0040107D01*
Y0039624D02*
X0056872D01*
Y0039370D02*
Y0039624D01*
X0056466Y0039370D02*
X0056872D01*
X0056466D02*
Y0039624D01*
Y0039116D02*
X0056872D01*
Y0038862D02*
Y0039116D01*
X0056466Y0038862D02*
X0056872D01*
X0056466D02*
Y0039116D01*
Y0038608D02*
X0056872D01*
Y0038379D02*
Y0038608D01*
X0056466Y0038379D02*
X0056872D01*
X0056466D02*
Y0038608D01*
X0053672Y0038379D02*
X0054078D01*
X0053672D02*
Y0038608D01*
X0054078D01*
Y0038379D02*
Y0038608D01*
X0053672Y0038862D02*
X0054078D01*
X0053672D02*
Y0039116D01*
X0054078D01*
Y0038862D02*
Y0039116D01*
X0053672Y0039370D02*
X0054078D01*
X0053672D02*
Y0039624D01*
X0054078D01*
Y0039370D02*
Y0039624D01*
X0053672Y0039878D02*
X0054078D01*
X0053672D02*
Y0040107D01*
X0054078D01*
Y0039878D02*
Y0040107D01*
D16*
X0055629Y0092056D02*
X0057229D01*
X0055629Y0092856D02*
X0057229D01*
X0055629Y0092056D02*
Y0092856D01*
X0057229Y0092056D02*
Y0092856D01*
X0055629Y0092056D02*
X0057229D01*
X0055629Y0092856D02*
X0057229D01*
X0055629Y0092056D02*
Y0092856D01*
X0057229Y0092056D02*
Y0092856D01*
X0032099Y0088338D02*
X0046499D01*
X0032099D02*
Y0097338D01*
X0046499D01*
Y0088338D02*
Y0097338D01*
X0032099Y0088338D02*
X0046499D01*
X0032099D02*
Y0097338D01*
X0046499D01*
Y0088338D02*
Y0097338D01*
X0033592Y0084836D02*
X0041592D01*
X0033592Y0075626D02*
X0041592D01*
X0033592Y0084836D02*
X0041592D01*
X0033592Y0075626D02*
X0041592D01*
X0032512Y0056451D02*
Y0058611D01*
Y0056451D02*
X0033912D01*
Y0058611D01*
X0032512D02*
X0033912D01*
X0032512Y0056451D02*
Y0058611D01*
Y0056451D02*
X0033912D01*
Y0058611D01*
X0032512D02*
X0033912D01*
X0037830Y0047026D02*
Y0051526D01*
X0035830Y0047026D02*
Y0051526D01*
X0037830Y0047026D02*
Y0051526D01*
X0035830Y0047026D02*
Y0051526D01*
X0161925Y0063987D02*
Y0071527D01*
X0064135D02*
X0161925D01*
X0064135Y0063987D02*
Y0071527D01*
Y0063987D02*
X0161925D01*
Y0071527D01*
X0064135D02*
X0161925D01*
X0064135Y0063987D02*
Y0071527D01*
Y0063987D02*
X0161925D01*
X0044249Y0061402D02*
Y0073432D01*
X0028539Y0061402D02*
X0044249D01*
X0028539Y0073432D02*
X0044249D01*
X0028539Y0061402D02*
Y0073432D01*
X0044249Y0061402D02*
Y0073432D01*
X0028539Y0061402D02*
X0044249D01*
X0028539Y0073432D02*
X0044249D01*
X0028539Y0061402D02*
Y0073432D01*
D17*
X0043338Y0047071D02*
G03*
X0043338Y0047071I-0000500J0000000D01*
G01*
X0048938Y0046171D02*
Y0053171D01*
X0041938Y0046171D02*
Y0053171D01*
X0048938D01*
X0041938Y0046171D02*
X0048938D01*
X0055779Y0088238D02*
X0059329D01*
X0055779Y0081688D02*
X0059329D01*
X0055779D02*
Y0088238D01*
X0059329Y0081688D02*
Y0088238D01*
X0038216Y0037947D02*
Y0041047D01*
X0040016Y0037947D02*
Y0041047D01*
X0038216D02*
X0040016D01*
X0038216Y0037947D02*
X0040016D01*
X0044938Y0049671D02*
X0045938D01*
X0045438Y0049171D02*
Y0050171D01*
X0057554Y0084463D02*
Y0085463D01*
X0057054Y0084963D02*
X0058054D01*
X0038616Y0039497D02*
X0039616D01*
X0039116Y0038997D02*
Y0039997D01*
D19*
X0045349Y0088088D02*
X0046799D01*
X0045349Y0086738D02*
Y0088088D01*
X0040249Y0086738D02*
X0045349D01*
X0040249D02*
Y0088088D01*
X0031799D02*
X0040249D01*
X0031799D02*
Y0097588D01*
X0046799D01*
Y0095188D02*
Y0097588D01*
Y0088088D02*
Y0090588D01*
X0047349D01*
Y0095188D01*
X0046799D02*
X0047349D01*
X0031842Y0086086D02*
X0043342D01*
Y0075336D02*
Y0086086D01*
X0031842Y0075336D02*
X0043342D01*
X0031842D02*
Y0086086D01*
X0050638Y0044471D02*
Y0054871D01*
X0040238Y0044471D02*
Y0054871D01*
X0050638D01*
X0040238Y0044471D02*
X0050638D01*
X0053229Y0088513D02*
X0061879D01*
X0053229Y0081413D02*
X0061879D01*
X0053229D02*
Y0088513D01*
X0061879Y0081413D02*
Y0088513D01*
X0037116Y0037697D02*
Y0041297D01*
X0041116Y0037697D02*
Y0041297D01*
X0037116D02*
X0041116D01*
X0037116Y0037697D02*
X0041116D01*
X0038380Y0046726D02*
Y0051826D01*
X0035280Y0046726D02*
X0038380D01*
X0035280D02*
Y0051826D01*
X0038380D01*
X0162180Y0063737D02*
Y0071777D01*
X0063880D02*
X0162180D01*
X0063880Y0063737D02*
Y0071777D01*
Y0063737D02*
X0162180D01*
X0040069Y0073667D02*
X0044569D01*
X0040069D02*
Y0074667D01*
X0037569D02*
X0040069D01*
X0037569Y0073667D02*
Y0074667D01*
X0028319Y0073667D02*
X0037569D01*
X0028319Y0061167D02*
Y0073667D01*
Y0061167D02*
X0037569D01*
Y0060167D02*
Y0061167D01*
Y0060167D02*
X0040069D01*
Y0061167D01*
X0044569D01*
Y0073667D01*
X0031402Y0058861D02*
X0035022D01*
Y0056201D02*
Y0058861D01*
X0031402Y0056201D02*
X0035022D01*
X0031402D02*
Y0058861D01*
D89*
X0165308Y0065024D02*
X0165908D01*
X0165608Y0064724D02*
Y0065324D01*
X0165308Y0066294D02*
X0165908D01*
X0165608Y0065994D02*
Y0066594D01*
X0165308Y0067564D02*
X0165908D01*
X0165608Y0067264D02*
Y0067864D01*
X0165308Y0068834D02*
X0165908D01*
X0165608Y0068534D02*
Y0069134D01*
X0054564Y0073152D02*
X0055164D01*
X0054864Y0072852D02*
Y0073452D01*
X0055834Y0073152D02*
X0056434D01*
X0056134Y0072852D02*
Y0073452D01*
X0054564Y0071882D02*
X0055164D01*
X0054864Y0071582D02*
Y0072182D01*
X0055834Y0071882D02*
X0056434D01*
X0056134Y0071582D02*
Y0072182D01*
X0054564Y0070612D02*
X0055164D01*
X0054864Y0070312D02*
Y0070912D01*
X0055834Y0070612D02*
X0056434D01*
X0056134Y0070312D02*
Y0070912D01*
X0054564Y0069342D02*
X0055164D01*
X0054864Y0069042D02*
Y0069642D01*
X0055834Y0069342D02*
X0056434D01*
X0056134Y0069042D02*
Y0069642D01*
X0054564Y0068072D02*
X0055164D01*
X0054864Y0067772D02*
Y0068372D01*
X0055834Y0068072D02*
X0056434D01*
X0056134Y0067772D02*
Y0068372D01*
X0054564Y0066802D02*
X0055164D01*
X0054864Y0066502D02*
Y0067102D01*
X0055834Y0066802D02*
X0056434D01*
X0056134Y0066502D02*
Y0067102D01*
X0054564Y0065532D02*
X0055164D01*
X0054864Y0065232D02*
Y0065832D01*
X0055834Y0065532D02*
X0056434D01*
X0056134Y0065232D02*
Y0065832D01*
X0133789Y0079502D02*
X0134689D01*
X0134239Y0079052D02*
Y0079952D01*
X0131249Y0079502D02*
X0132149D01*
X0131699Y0079052D02*
Y0079952D01*
X0128709Y0079502D02*
X0129609D01*
X0129159Y0079052D02*
Y0079952D01*
X0126169Y0079502D02*
X0127069D01*
X0126619Y0079052D02*
Y0079952D01*
X0123629Y0079502D02*
X0124529D01*
X0124079Y0079052D02*
Y0079952D01*
X0121089Y0079502D02*
X0121989D01*
X0121539Y0079052D02*
Y0079952D01*
X0118549Y0079502D02*
X0119449D01*
X0118999Y0079052D02*
Y0079952D01*
X0116009Y0079502D02*
X0116909D01*
X0116459Y0079052D02*
Y0079952D01*
X0113469Y0079502D02*
X0114369D01*
X0113919Y0079052D02*
Y0079952D01*
X0110929Y0079502D02*
X0111829D01*
X0111379Y0079052D02*
Y0079952D01*
X0108389Y0079502D02*
X0109289D01*
X0108839Y0079052D02*
Y0079952D01*
X0105849Y0079502D02*
X0106749D01*
X0106299Y0079052D02*
Y0079952D01*
X0103309Y0079502D02*
X0104209D01*
X0103759Y0079052D02*
Y0079952D01*
X0100769Y0079502D02*
X0101669D01*
X0101219Y0079052D02*
Y0079952D01*
X0098229Y0079502D02*
X0099129D01*
X0098679Y0079052D02*
Y0079952D01*
X0095689Y0079502D02*
X0096589D01*
X0096139Y0079052D02*
Y0079952D01*
X0093149Y0079502D02*
X0094049D01*
X0093599Y0079052D02*
Y0079952D01*
X0090609Y0079502D02*
X0091509D01*
X0091059Y0079052D02*
Y0079952D01*
X0088069Y0079502D02*
X0088969D01*
X0088519Y0079052D02*
Y0079952D01*
X0085529Y0079502D02*
X0086429D01*
X0085979Y0079052D02*
Y0079952D01*
X0082989Y0079502D02*
X0083889D01*
X0083439Y0079052D02*
Y0079952D01*
X0080449Y0079502D02*
X0081349D01*
X0080899Y0079052D02*
Y0079952D01*
X0077909Y0079502D02*
X0078809D01*
X0078359Y0079052D02*
Y0079952D01*
X0075369Y0079502D02*
X0076269D01*
X0075819Y0079052D02*
Y0079952D01*
X0072829Y0079502D02*
X0073729D01*
X0073279Y0079052D02*
Y0079952D01*
X0139273Y0079121D02*
X0139873D01*
X0139573Y0078821D02*
Y0079421D01*
X0140543Y0079121D02*
X0141143D01*
X0140843Y0078821D02*
Y0079421D01*
X0141813Y0079121D02*
X0142413D01*
X0142113Y0078821D02*
Y0079421D01*
X0143083Y0079121D02*
X0143683D01*
X0143383Y0078821D02*
Y0079421D01*
X0144353Y0079121D02*
X0144953D01*
X0144653Y0078821D02*
Y0079421D01*
X0145623Y0079121D02*
X0146223D01*
X0145923Y0078821D02*
Y0079421D01*
X0146893Y0079121D02*
X0147493D01*
X0147193Y0078821D02*
Y0079421D01*
X0148163Y0079121D02*
X0148763D01*
X0148463Y0078821D02*
Y0079421D01*
X0065209Y0060071D02*
X0066109D01*
X0065659Y0059621D02*
Y0060521D01*
X0067749Y0060071D02*
X0068649D01*
X0068199Y0059621D02*
Y0060521D01*
X0045299Y0092838D02*
X0046299D01*
X0045799Y0092338D02*
Y0093338D01*
X0039299Y0092838D02*
X0040299D01*
X0039799Y0092338D02*
Y0093338D01*
X0042299Y0088138D02*
X0043299D01*
X0042799Y0087638D02*
Y0088638D01*
X0151130Y0067757D02*
X0153670D01*
X0152400Y0066487D02*
Y0069027D01*
X0072390Y0067757D02*
X0074930D01*
X0073660Y0066487D02*
Y0069027D01*
X0148820Y0068707D02*
X0149630D01*
X0149225Y0068302D02*
Y0069112D01*
X0147550Y0070607D02*
X0148360D01*
X0147955Y0070202D02*
Y0071012D01*
X0146280Y0068707D02*
X0147090D01*
X0146685Y0068302D02*
Y0069112D01*
X0145010Y0070607D02*
X0145820D01*
X0145415Y0070202D02*
Y0071012D01*
X0143740Y0068707D02*
X0144550D01*
X0144145Y0068302D02*
Y0069112D01*
X0142470Y0070607D02*
X0143280D01*
X0142875Y0070202D02*
Y0071012D01*
X0136120Y0068707D02*
X0136930D01*
X0136525Y0068302D02*
Y0069112D01*
X0134850Y0070607D02*
X0135660D01*
X0135255Y0070202D02*
Y0071012D01*
X0133580Y0068707D02*
X0134390D01*
X0133985Y0068302D02*
Y0069112D01*
X0132310Y0070607D02*
X0133120D01*
X0132715Y0070202D02*
Y0071012D01*
X0131040Y0068707D02*
X0131850D01*
X0131445Y0068302D02*
Y0069112D01*
X0129770Y0070607D02*
X0130580D01*
X0130175Y0070202D02*
Y0071012D01*
X0128500Y0068707D02*
X0129310D01*
X0128905Y0068302D02*
Y0069112D01*
X0127230Y0070607D02*
X0128040D01*
X0127635Y0070202D02*
Y0071012D01*
X0125960Y0068707D02*
X0126770D01*
X0126365Y0068302D02*
Y0069112D01*
X0124690Y0070607D02*
X0125500D01*
X0125095Y0070202D02*
Y0071012D01*
X0123420Y0068707D02*
X0124230D01*
X0123825Y0068302D02*
Y0069112D01*
X0122150Y0070607D02*
X0122960D01*
X0122555Y0070202D02*
Y0071012D01*
X0120880Y0068707D02*
X0121690D01*
X0121285Y0068302D02*
Y0069112D01*
X0119610Y0070607D02*
X0120420D01*
X0120015Y0070202D02*
Y0071012D01*
X0118340Y0068707D02*
X0119150D01*
X0118745Y0068302D02*
Y0069112D01*
X0117070Y0070607D02*
X0117880D01*
X0117475Y0070202D02*
Y0071012D01*
X0110720Y0068707D02*
X0111530D01*
X0111125Y0068302D02*
Y0069112D01*
X0109450Y0070607D02*
X0110260D01*
X0109855Y0070202D02*
Y0071012D01*
X0108180Y0068707D02*
X0108990D01*
X0108585Y0068302D02*
Y0069112D01*
X0106910Y0070607D02*
X0107720D01*
X0107315Y0070202D02*
Y0071012D01*
X0105640Y0068707D02*
X0106450D01*
X0106045Y0068302D02*
Y0069112D01*
X0104370Y0070607D02*
X0105180D01*
X0104775Y0070202D02*
Y0071012D01*
X0103100Y0068707D02*
X0103910D01*
X0103505Y0068302D02*
Y0069112D01*
X0101830Y0070607D02*
X0102640D01*
X0102235Y0070202D02*
Y0071012D01*
X0100560Y0068707D02*
X0101370D01*
X0100965Y0068302D02*
Y0069112D01*
X0099290Y0070607D02*
X0100100D01*
X0099695Y0070202D02*
Y0071012D01*
X0098020Y0068707D02*
X0098830D01*
X0098425Y0068302D02*
Y0069112D01*
X0096750Y0070607D02*
X0097560D01*
X0097155Y0070202D02*
Y0071012D01*
X0095480Y0068707D02*
X0096290D01*
X0095885Y0068302D02*
Y0069112D01*
X0094210Y0070607D02*
X0095020D01*
X0094615Y0070202D02*
Y0071012D01*
X0092940Y0068707D02*
X0093750D01*
X0093345Y0068302D02*
Y0069112D01*
X0091670Y0070607D02*
X0092480D01*
X0092075Y0070202D02*
Y0071012D01*
X0090400Y0068707D02*
X0091210D01*
X0090805Y0068302D02*
Y0069112D01*
X0089130Y0070607D02*
X0089940D01*
X0089535Y0070202D02*
Y0071012D01*
X0087860Y0068707D02*
X0088670D01*
X0088265Y0068302D02*
Y0069112D01*
X0086590Y0070607D02*
X0087400D01*
X0086995Y0070202D02*
Y0071012D01*
X0085320Y0068707D02*
X0086130D01*
X0085725Y0068302D02*
Y0069112D01*
X0084050Y0070607D02*
X0084860D01*
X0084455Y0070202D02*
Y0071012D01*
X0082780Y0068707D02*
X0083590D01*
X0083185Y0068302D02*
Y0069112D01*
X0081510Y0070607D02*
X0082320D01*
X0081915Y0070202D02*
Y0071012D01*
X0080240Y0068707D02*
X0081050D01*
X0080645Y0068302D02*
Y0069112D01*
X0078970Y0070607D02*
X0079780D01*
X0079375Y0070202D02*
Y0071012D01*
X0077700Y0068707D02*
X0078510D01*
X0078105Y0068302D02*
Y0069112D01*
X0076430Y0070607D02*
X0077240D01*
X0076835Y0070202D02*
Y0071012D01*
X0148820Y0064907D02*
X0149630D01*
X0149225Y0064502D02*
Y0065312D01*
X0147550Y0066807D02*
X0148360D01*
X0147955Y0066402D02*
Y0067212D01*
X0146280Y0064907D02*
X0147090D01*
X0146685Y0064502D02*
Y0065312D01*
X0145010Y0066807D02*
X0145820D01*
X0145415Y0066402D02*
Y0067212D01*
X0143740Y0064907D02*
X0144550D01*
X0144145Y0064502D02*
Y0065312D01*
X0142470Y0066807D02*
X0143280D01*
X0142875Y0066402D02*
Y0067212D01*
X0136120Y0064907D02*
X0136930D01*
X0136525Y0064502D02*
Y0065312D01*
X0134850Y0066807D02*
X0135660D01*
X0135255Y0066402D02*
Y0067212D01*
X0133580Y0064907D02*
X0134390D01*
X0133985Y0064502D02*
Y0065312D01*
X0132310Y0066807D02*
X0133120D01*
X0132715Y0066402D02*
Y0067212D01*
X0131040Y0064907D02*
X0131850D01*
X0131445Y0064502D02*
Y0065312D01*
X0129770Y0066807D02*
X0130580D01*
X0130175Y0066402D02*
Y0067212D01*
X0128500Y0064907D02*
X0129310D01*
X0128905Y0064502D02*
Y0065312D01*
X0127230Y0066807D02*
X0128040D01*
X0127635Y0066402D02*
Y0067212D01*
X0125960Y0064907D02*
X0126770D01*
X0126365Y0064502D02*
Y0065312D01*
X0124690Y0066807D02*
X0125500D01*
X0125095Y0066402D02*
Y0067212D01*
X0123420Y0064907D02*
X0124230D01*
X0123825Y0064502D02*
Y0065312D01*
X0122150Y0066807D02*
X0122960D01*
X0122555Y0066402D02*
Y0067212D01*
X0120880Y0064907D02*
X0121690D01*
X0121285Y0064502D02*
Y0065312D01*
X0119610Y0066807D02*
X0120420D01*
X0120015Y0066402D02*
Y0067212D01*
X0118340Y0064907D02*
X0119150D01*
X0118745Y0064502D02*
Y0065312D01*
X0117070Y0066807D02*
X0117880D01*
X0117475Y0066402D02*
Y0067212D01*
X0110720Y0064907D02*
X0111530D01*
X0111125Y0064502D02*
Y0065312D01*
X0109450Y0066807D02*
X0110260D01*
X0109855Y0066402D02*
Y0067212D01*
X0108180Y0064907D02*
X0108990D01*
X0108585Y0064502D02*
Y0065312D01*
X0106910Y0066807D02*
X0107720D01*
X0107315Y0066402D02*
Y0067212D01*
X0105640Y0064907D02*
X0106450D01*
X0106045Y0064502D02*
Y0065312D01*
X0104370Y0066807D02*
X0105180D01*
X0104775Y0066402D02*
Y0067212D01*
X0103100Y0064907D02*
X0103910D01*
X0103505Y0064502D02*
Y0065312D01*
X0101830Y0066807D02*
X0102640D01*
X0102235Y0066402D02*
Y0067212D01*
X0100560Y0064907D02*
X0101370D01*
X0100965Y0064502D02*
Y0065312D01*
X0099290Y0066807D02*
X0100100D01*
X0099695Y0066402D02*
Y0067212D01*
X0098020Y0064907D02*
X0098830D01*
X0098425Y0064502D02*
Y0065312D01*
X0096750Y0066807D02*
X0097560D01*
X0097155Y0066402D02*
Y0067212D01*
X0095480Y0064907D02*
X0096290D01*
X0095885Y0064502D02*
Y0065312D01*
X0094210Y0066807D02*
X0095020D01*
X0094615Y0066402D02*
Y0067212D01*
X0092940Y0064907D02*
X0093750D01*
X0093345Y0064502D02*
Y0065312D01*
X0091670Y0066807D02*
X0092480D01*
X0092075Y0066402D02*
Y0067212D01*
X0090400Y0064907D02*
X0091210D01*
X0090805Y0064502D02*
Y0065312D01*
X0089130Y0066807D02*
X0089940D01*
X0089535Y0066402D02*
Y0067212D01*
X0087860Y0064907D02*
X0088670D01*
X0088265Y0064502D02*
Y0065312D01*
X0086590Y0066807D02*
X0087400D01*
X0086995Y0066402D02*
Y0067212D01*
X0085320Y0064907D02*
X0086130D01*
X0085725Y0064502D02*
Y0065312D01*
X0084050Y0066807D02*
X0084860D01*
X0084455Y0066402D02*
Y0067212D01*
X0082780Y0064907D02*
X0083590D01*
X0083185Y0064502D02*
Y0065312D01*
X0081510Y0066807D02*
X0082320D01*
X0081915Y0066402D02*
Y0067212D01*
X0080240Y0064907D02*
X0081050D01*
X0080645Y0064502D02*
Y0065312D01*
X0078970Y0066807D02*
X0079780D01*
X0079375Y0066402D02*
Y0067212D01*
X0077700Y0064907D02*
X0078510D01*
X0078105Y0064502D02*
Y0065312D01*
X0076430Y0066807D02*
X0077240D01*
X0076835Y0066402D02*
Y0067212D01*
X0069677Y0092583D02*
X0070277D01*
X0069977Y0092283D02*
Y0092883D01*
X0069677Y0091313D02*
X0070277D01*
X0069977Y0091013D02*
Y0091613D01*
X0069677Y0090043D02*
X0070277D01*
X0069977Y0089743D02*
Y0090343D01*
X0069677Y0088773D02*
X0070277D01*
X0069977Y0088473D02*
Y0089073D01*
X0156164Y0079121D02*
X0156764D01*
X0156464Y0078821D02*
Y0079421D01*
X0154894Y0079121D02*
X0155494D01*
X0155194Y0078821D02*
Y0079421D01*
X0153624Y0079121D02*
X0154224D01*
X0153924Y0078821D02*
Y0079421D01*
X0072217Y0039497D02*
X0072817D01*
X0072517Y0039197D02*
Y0039797D01*
X0072217Y0040767D02*
X0072817D01*
X0072517Y0040467D02*
Y0041067D01*
X0078036Y0056388D02*
X0078936D01*
X0078486Y0055938D02*
Y0056838D01*
X0080576Y0056388D02*
X0081476D01*
X0081026Y0055938D02*
Y0056838D01*
X0083116Y0056388D02*
X0084016D01*
X0083566Y0055938D02*
Y0056838D01*
X0085656Y0056388D02*
X0086556D01*
X0086106Y0055938D02*
Y0056838D01*
X0088196Y0056388D02*
X0089096D01*
X0088646Y0055938D02*
Y0056838D01*
X0090736Y0056388D02*
X0091636D01*
X0091186Y0055938D02*
Y0056838D01*
X0093276Y0056388D02*
X0094176D01*
X0093726Y0055938D02*
Y0056838D01*
X0095816Y0056388D02*
X0096716D01*
X0096266Y0055938D02*
Y0056838D01*
X0098356Y0056388D02*
X0099256D01*
X0098806Y0055938D02*
Y0056838D01*
X0100896Y0056388D02*
X0101796D01*
X0101346Y0055938D02*
Y0056838D01*
X0103436Y0056388D02*
X0104336D01*
X0103886Y0055938D02*
Y0056838D01*
X0105976Y0056388D02*
X0106876D01*
X0106426Y0055938D02*
Y0056838D01*
X0108516Y0056388D02*
X0109416D01*
X0108966Y0055938D02*
Y0056838D01*
X0111056Y0056388D02*
X0111956D01*
X0111506Y0055938D02*
Y0056838D01*
X0113596Y0056388D02*
X0114496D01*
X0114046Y0055938D02*
Y0056838D01*
X0116136Y0056388D02*
X0117036D01*
X0116586Y0055938D02*
Y0056838D01*
X0118676Y0056388D02*
X0119576D01*
X0119126Y0055938D02*
Y0056838D01*
X0121216Y0056388D02*
X0122116D01*
X0121666Y0055938D02*
Y0056838D01*
X0123756Y0056388D02*
X0124656D01*
X0124206Y0055938D02*
Y0056838D01*
X0126296Y0056388D02*
X0127196D01*
X0126746Y0055938D02*
Y0056838D01*
X0128836Y0056388D02*
X0129736D01*
X0129286Y0055938D02*
Y0056838D01*
X0131376Y0056388D02*
X0132276D01*
X0131826Y0055938D02*
Y0056838D01*
X0037669Y0061397D02*
X0039969D01*
X0038819Y0060247D02*
Y0062547D01*
X0037669Y0073437D02*
X0039969D01*
X0038819Y0072287D02*
Y0074587D01*
X0041069Y0066167D02*
X0041989D01*
X0041529Y0065707D02*
Y0066627D01*
X0041069Y0068667D02*
X0041989D01*
X0041529Y0068207D02*
Y0069127D01*
X0043069Y0068667D02*
X0043989D01*
X0043529Y0068207D02*
Y0069127D01*
X0043069Y0066167D02*
X0043989D01*
X0043529Y0065707D02*
Y0066627D01*
X0137495Y0056896D02*
X0138095D01*
X0137795Y0056596D02*
Y0057196D01*
X0138765Y0056896D02*
X0139365D01*
X0139065Y0056596D02*
Y0057196D01*
X0140035Y0056896D02*
X0140635D01*
X0140335Y0056596D02*
Y0057196D01*
X0141305Y0056896D02*
X0141905D01*
X0141605Y0056596D02*
Y0057196D01*
X0142575Y0056896D02*
X0143175D01*
X0142875Y0056596D02*
Y0057196D01*
X0143845Y0056896D02*
X0144445D01*
X0144145Y0056596D02*
Y0057196D01*
X0145115Y0056896D02*
X0145715D01*
X0145415Y0056596D02*
Y0057196D01*
X0146385Y0056896D02*
X0146985D01*
X0146685Y0056596D02*
Y0057196D01*
X0040444Y0033020D02*
X0041344D01*
X0040894Y0032570D02*
Y0033470D01*
X0042984Y0033020D02*
X0043884D01*
X0043434Y0032570D02*
Y0033470D01*
X0153982Y0089154D02*
X0154882D01*
X0154432Y0088704D02*
Y0089604D01*
X0156522Y0089154D02*
X0157422D01*
X0156972Y0088704D02*
Y0089604D01*
X0153982Y0092202D02*
X0154882D01*
X0154432Y0091752D02*
Y0092652D01*
X0156522Y0092202D02*
X0157422D01*
X0156972Y0091752D02*
Y0092652D01*
X0153982Y0095250D02*
X0154882D01*
X0154432Y0094800D02*
Y0095700D01*
X0156522Y0095250D02*
X0157422D01*
X0156972Y0094800D02*
Y0095700D01*
X0154871Y0052578D02*
X0155771D01*
X0155321Y0052128D02*
Y0053028D01*
X0157411Y0052578D02*
X0158311D01*
X0157861Y0052128D02*
Y0053028D01*
X0154871Y0049530D02*
X0155771D01*
X0155321Y0049080D02*
Y0049980D01*
X0157411Y0049530D02*
X0158311D01*
X0157861Y0049080D02*
Y0049980D01*
X0154871Y0046482D02*
X0155771D01*
X0155321Y0046032D02*
Y0046932D01*
X0157411Y0046482D02*
X0158311D01*
X0157861Y0046032D02*
Y0046932D01*
X0154871Y0043434D02*
X0155771D01*
X0155321Y0042984D02*
Y0043884D01*
X0157411Y0043434D02*
X0158311D01*
X0157861Y0042984D02*
Y0043884D01*
X0072217Y0045974D02*
X0072817D01*
X0072517Y0045674D02*
Y0046274D01*
X0072217Y0047244D02*
X0072817D01*
X0072517Y0046944D02*
Y0047544D01*
X0072217Y0048514D02*
X0072817D01*
X0072517Y0048214D02*
Y0048814D01*
X0072217Y0049784D02*
X0072817D01*
X0072517Y0049484D02*
Y0050084D01*
X0069677Y0081661D02*
X0070277D01*
X0069977Y0081361D02*
Y0081961D01*
X0069677Y0082931D02*
X0070277D01*
X0069977Y0082631D02*
Y0083231D01*
X0157053Y0056896D02*
X0157653D01*
X0157353Y0056596D02*
Y0057196D01*
X0155783Y0056896D02*
X0156383D01*
X0156083Y0056596D02*
Y0057196D01*
X0154513Y0056896D02*
X0155113D01*
X0154813Y0056596D02*
Y0057196D01*
X0066121Y0091313D02*
X0066721D01*
X0066421Y0091013D02*
Y0091613D01*
X0066121Y0092583D02*
X0066721D01*
X0066421Y0092283D02*
Y0092883D01*
X0049036Y0057646D02*
X0049286D01*
X0049161Y0057521D02*
Y0057771D01*
X0042928Y0050927D02*
X0043178D01*
X0043053Y0050802D02*
Y0051052D01*
X0047639Y0049518D02*
X0047889D01*
X0047764Y0049393D02*
Y0049643D01*
X0043575Y0052312D02*
X0043825D01*
X0043700Y0052187D02*
Y0052437D01*
X0043466Y0047048D02*
X0043716D01*
X0043591Y0046923D02*
Y0047173D01*
X0047754Y0055626D02*
X0048004D01*
X0047879Y0055501D02*
Y0055751D01*
X0057279Y0056134D02*
X0057529D01*
X0057404Y0056009D02*
Y0056259D01*
X0044071Y0036703D02*
X0044321D01*
X0044196Y0036578D02*
Y0036828D01*
X0046623Y0047105D02*
X0046873D01*
X0046748Y0046980D02*
Y0047230D01*
X0059184Y0056134D02*
X0059434D01*
X0059309Y0056009D02*
Y0056259D01*
X0042674Y0048006D02*
X0042924D01*
X0042799Y0047881D02*
Y0048131D01*
X0053674Y0041148D02*
X0053924D01*
X0053799Y0041023D02*
Y0041273D01*
X0058168Y0056134D02*
X0058418D01*
X0058293Y0056009D02*
Y0056259D01*
X0036197Y0043561D02*
X0036447D01*
X0036322Y0043436D02*
Y0043686D01*
X0040134Y0045974D02*
X0040384D01*
X0040259Y0045849D02*
Y0046099D01*
X0038991Y0042545D02*
X0039241D01*
X0039116Y0042420D02*
Y0042670D01*
X0034673Y0035814D02*
X0034923D01*
X0034798Y0035689D02*
Y0035939D01*
X0036832Y0033909D02*
X0037082D01*
X0036957Y0033784D02*
Y0034034D01*
X0048770Y0041656D02*
X0049020D01*
X0048895Y0041531D02*
Y0041781D01*
X0052961Y0033636D02*
X0053211D01*
X0053086Y0033511D02*
Y0033761D01*
X0051945Y0035814D02*
X0052195D01*
X0052070Y0035689D02*
Y0035939D01*
X0058029Y0044481D02*
X0058279D01*
X0058154Y0044356D02*
Y0044606D01*
X0059311Y0062484D02*
X0059561D01*
X0059436Y0062359D02*
Y0062609D01*
X0065407Y0066294D02*
X0065657D01*
X0065532Y0066169D02*
Y0066419D01*
X0067820Y0069164D02*
X0068070D01*
X0067945Y0069039D02*
Y0069289D01*
X0061851Y0072390D02*
X0062101D01*
X0061976Y0072265D02*
Y0072515D01*
X0058549Y0074295D02*
X0058799D01*
X0058674Y0074170D02*
Y0074420D01*
X0067439Y0086106D02*
X0067689D01*
X0067564Y0085981D02*
Y0086231D01*
X0057598Y0038342D02*
X0057848D01*
X0057723Y0038217D02*
Y0038467D01*
X0036705Y0049784D02*
X0036955D01*
X0036830Y0049659D02*
Y0049909D01*
X0038102Y0055245D02*
X0038352D01*
X0038227Y0055120D02*
Y0055370D01*
X0055501Y0093345D02*
X0055751D01*
X0055626Y0093220D02*
Y0093470D01*
X0061978Y0090170D02*
X0062228D01*
X0062103Y0090045D02*
Y0090295D01*
X0055374Y0089281D02*
X0055624D01*
X0055499Y0089156D02*
Y0089406D01*
X0047234Y0032004D02*
X0047484D01*
X0047359Y0031879D02*
Y0032129D01*
X0052338Y0061964D02*
X0052588D01*
X0052463Y0061839D02*
Y0062089D01*
X0061990Y0084951D02*
X0062240D01*
X0062115Y0084826D02*
Y0085076D01*
X0060835Y0056261D02*
X0061085D01*
X0060960Y0056136D02*
Y0056386D01*
X0061881Y0056388D02*
X0062131D01*
X0062006Y0056263D02*
Y0056513D01*
X0084965Y0060833D02*
X0085215D01*
X0085090Y0060708D02*
Y0060958D01*
X0042928Y0058674D02*
X0043178D01*
X0043053Y0058549D02*
Y0058799D01*
X0058041Y0046482D02*
X0058291D01*
X0058166Y0046357D02*
Y0046607D01*
X0045151Y0035877D02*
X0045401D01*
X0045276Y0035752D02*
Y0036002D01*
X0034800Y0055626D02*
X0035050D01*
X0034925Y0055501D02*
Y0055751D01*
X0042166Y0057150D02*
X0042416D01*
X0042291Y0057025D02*
Y0057275D01*
X0038741Y0039497D02*
X0038991D01*
X0038866Y0039372D02*
Y0039622D01*
X0064391Y0080899D02*
X0064641D01*
X0064516Y0080774D02*
Y0081024D01*
X0032031Y0056428D02*
X0032281D01*
X0032156Y0056303D02*
Y0056553D01*
X0033809Y0055666D02*
X0034059D01*
X0033934Y0055541D02*
Y0055791D01*
X0029339Y0054991D02*
X0029589D01*
X0029464Y0054866D02*
Y0055116D01*
X0068685Y0074425D02*
X0069447D01*
X0069066Y0074044D02*
Y0074806D01*
X0068834Y0062484D02*
X0069596D01*
X0069215Y0062103D02*
Y0062865D01*
X0152529Y0083185D02*
X0152779D01*
X0152654Y0083060D02*
Y0083310D01*
X0107698Y0055499D02*
X0107948D01*
X0107823Y0055374D02*
Y0055624D01*
X0102364Y0058928D02*
X0102614D01*
X0102489Y0058803D02*
Y0059053D01*
X0087124Y0058547D02*
X0087374D01*
X0087249Y0058422D02*
Y0058672D01*
X0153251Y0041080D02*
X0153501D01*
X0153376Y0040955D02*
Y0041205D01*
M02*
